<svg width="28" height="28" viewBox="0 0 28 28" fill="none" xmlns="http://www.w3.org/2000/svg">
<path d="M13.9971 12.4932C12.1507 12.4932 10.7584 13.3683 10.7584 14.5284V16.7762C10.7584 17.9362 12.1507 18.8114 13.9971 18.8114C15.842 18.8114 17.2333 17.9363 17.2333 16.7762V14.5284C17.2333 13.3683 15.842 12.4932 13.9971 12.4932ZM13.9971 15.1333C12.9317 15.1333 12.2648 14.9079 12.257 14.5469V14.5362C12.2643 14.2864 12.8883 13.9234 13.9971 13.9234C15.0561 13.9234 15.7318 14.2815 15.7318 14.5284C15.7318 14.7752 15.0561 15.1333 13.9971 15.1333ZM12.257 16.7635V16.223C13.3841 16.6094 14.6076 16.6094 15.7347 16.223V16.7635H15.7318V16.7762C15.7318 17.0192 15.0718 17.3577 13.9971 17.3577C12.9063 17.3577 12.255 17.145 12.256 16.7869L12.2595 16.7791L12.2609 16.7635L12.257 16.7635Z" fill="#404040"/>
<path d="M7.37146 9.11841C5.52554 9.11841 4.1333 9.99355 4.1333 11.1536V13.4025C4.1333 14.5625 5.52554 15.4377 7.37146 15.4377C9.21689 15.4377 10.6082 14.5625 10.6082 13.4025V11.1536C10.6082 9.99355 9.21692 9.11841 7.37146 9.11841ZM5.6319 13.3888V12.8493C6.75877 13.2366 7.98269 13.2366 9.10956 12.8493V13.3888H9.10663V13.4025C9.10663 13.6445 8.44664 13.983 7.37146 13.983C6.28118 13.983 5.62995 13.7703 5.63092 13.4132L5.63434 13.4044L5.63483 13.3888H5.6319ZM7.37146 11.7585C6.30606 11.7585 5.6397 11.5341 5.6319 11.1731V11.1614C5.63921 10.9126 6.26264 10.5506 7.37146 10.5506C8.43052 10.5506 9.10663 10.9077 9.10663 11.1536C9.10663 11.4004 8.43052 11.7585 7.37146 11.7585Z" fill="#404040"/>
<path d="M20.6222 9.11841C18.7763 9.11841 17.384 9.99355 17.384 11.1536V13.4025C17.384 14.5625 18.7763 15.4377 20.6222 15.4377C22.4676 15.4377 23.8589 14.5625 23.8589 13.4025V11.1536C23.8589 9.99355 22.4676 9.11841 20.6222 9.11841ZM18.8826 13.3888V12.8493C20.0096 13.2356 21.2333 13.2356 22.3603 12.8493V13.3888H22.3574V13.4025C22.3574 13.6445 21.6974 13.983 20.6222 13.983C19.5319 13.983 18.8807 13.7703 18.8817 13.4132L18.885 13.4044L18.8855 13.3888H18.8826ZM20.6222 11.7585C19.5568 11.7585 18.8904 11.5341 18.8826 11.1731V11.1614C18.8899 10.9126 19.5134 10.5506 20.6222 10.5506C21.6813 10.5506 22.3574 10.9077 22.3574 11.1536C22.3574 11.4004 21.6813 11.7585 20.6222 11.7585Z" fill="#404040"/>
<path d="M13.9971 5.74268C12.1507 5.74268 10.7584 6.61783 10.7584 7.77885V10.0258C10.7584 11.1868 12.1507 12.0619 13.9971 12.0619C15.842 12.0619 17.2333 11.1868 17.2333 10.0258V7.77885C17.2333 6.61783 15.842 5.74268 13.9971 5.74268ZM13.9971 8.38277C12.9317 8.38277 12.2648 8.15837 12.257 7.79739V7.78665C12.2643 7.53689 12.8883 7.17395 13.9971 7.17395C15.0561 7.17395 15.7318 7.53201 15.7318 7.77885C15.7318 8.02471 15.0561 8.38277 13.9971 8.38277ZM12.257 10.0131V9.47354C13.3844 9.85794 14.6073 9.85794 15.7347 9.47354V10.0131H15.7318V10.0258C15.7318 10.2687 15.0718 10.6072 13.9971 10.6072C12.9063 10.6072 12.2551 10.3945 12.2565 10.0365L12.2609 10.0131H12.257Z" fill="#404040"/>
<path d="M27.6732 13.6717C27.4601 13.3222 27.1541 13.0387 26.7892 12.8531L24.5916 11.7301L24.5726 11.7204V13.4034L25.6024 13.9292L14 19.8397L2.39764 13.9292L3.4201 13.4072L3.42743 13.4033V11.7203L1.21082 12.8531C0.846488 13.0393 0.540607 13.3225 0.326965 13.6714C0.113324 14.0204 0.000182262 14.4215 0 14.8307V19.7782C0.00028493 20.188 0.113778 20.5899 0.327942 20.9394C0.542106 21.2889 0.848605 21.5724 1.21368 21.7587L12.9922 27.757C13.3042 27.9164 13.6496 27.9997 14 27.9999C14.3506 27.9984 14.696 27.9153 15.0089 27.757L26.7873 21.7548C27.1521 21.5686 27.4585 21.2851 27.6725 20.9358C27.8865 20.5865 27.9998 20.1849 28 19.7752V14.8307C27.9999 14.4216 27.8868 14.0206 27.6732 13.6717ZM13.2507 26.2087L1.89368 20.4212C1.77454 20.3616 1.67464 20.2696 1.60541 20.1558C1.53537 20.042 1.49835 19.9109 1.49854 19.7772V15.1527L13.2507 21.1392V26.2087ZM26.5014 19.7763C26.5015 19.9098 26.4647 20.0408 26.3951 20.1548C26.3248 20.2676 26.2254 20.3593 26.1072 20.4202L14.7493 26.2077V21.1392L26.5014 15.1527V19.7763Z" fill="#404040"/>
<path d="M22 12C23.1867 12 24.3467 11.6481 25.3334 10.9888C26.3201 10.3295 27.0891 9.39245 27.5433 8.29609C27.9974 7.19974 28.1162 5.99335 27.8847 4.82946C27.6532 3.66558 27.0817 2.59648 26.2426 1.75737C25.4035 0.918251 24.3344 0.346803 23.1705 0.115292C22.0066 -0.116219 20.8002 0.00259688 19.7039 0.456723C18.6075 0.910848 17.6705 1.67988 17.0112 2.66658C16.3519 3.65327 16 4.81331 16 6C16 6.78793 16.1551 7.56815 16.4567 8.29611C16.7582 9.02407 17.2002 9.68552 17.7573 10.2427C18.3145 10.7998 18.9759 11.2418 19.7039 11.5433C20.4318 11.8448 21.2121 12 22 12Z" fill="#FFBB00"/>
<path d="M22.5 5.50101V2.875H21.5V5.50101L18.875 5.5V6.5L21.5 6.50101V9.125H22.5V6.50101H25.125V5.50101H22.5Z" fill="black"/>
</svg>
