<svg width="8" height="18" viewBox="0 0 8 18" fill="none" xmlns="http://www.w3.org/2000/svg">
<path d="M3.47238 0.219239L0.219942 3.46833C0.15024 3.53799 0.094941 3.62069 0.0572033 3.71172C0.0194656 3.80276 2.78878e-05 3.90033 2.99865e-08 3.99887C-2.78278e-05 4.09741 0.0193547 4.195 0.057041 4.28605C0.0947272 4.3771 0.149979 4.45984 0.219642 4.52954L0.220902 4.5308C0.290468 4.60041 0.373067 4.65562 0.463981 4.6933C0.554895 4.73097 0.652341 4.75036 0.750752 4.75036C0.849162 4.75036 0.946608 4.73097 1.03752 4.6933C1.12844 4.65562 1.21104 4.60041 1.2806 4.5308L3.2508 2.56V17.25C3.25073 17.4488 3.32966 17.6396 3.47021 17.7802C3.61076 17.9209 3.80143 17.9999 4.00027 18C4.09873 18 4.19622 17.9805 4.28716 17.9428C4.37811 17.9051 4.46075 17.8499 4.53034 17.7802C4.59994 17.7106 4.65513 17.6279 4.69278 17.5369C4.73043 17.446 4.74979 17.3485 4.74975 17.25V2.56048L6.71982 4.53075C6.7894 4.60036 6.87201 4.65558 6.96293 4.69324C7.05386 4.73091 7.15132 4.75029 7.24974 4.75028C7.34815 4.75027 7.44561 4.73086 7.53652 4.69317C7.62744 4.65548 7.71003 4.60024 7.77959 4.53061L7.78048 4.52972C7.92106 4.389 8.00002 4.19822 8 3.99931C7.99998 3.80039 7.92098 3.60963 7.78037 3.46894L4.53176 0.219559C4.39132 0.0790373 4.20081 6.00455e-05 4.00214 3.42247e-08C3.80347 -5.9977e-05 3.61291 0.0788022 3.47238 0.219239Z" fill="black"/>
</svg>
