<svg width="8" height="18" viewBox="0 0 8 18" fill="none" xmlns="http://www.w3.org/2000/svg">
<path d="M4.35538 17.8535L7.84186 14.3689C7.93325 14.2806 7.98874 14.1615 7.99764 14.0347C8.00653 13.9079 7.96821 13.7823 7.89005 13.6821C7.84567 13.628 7.79048 13.5839 7.72802 13.5525C7.66556 13.5211 7.59721 13.5031 7.52738 13.4997C7.45755 13.4963 7.38778 13.5075 7.32254 13.5327C7.25731 13.5578 7.19806 13.5963 7.14861 13.6458L4.5017 16.2922L4.5017 0.5C4.50168 0.434322 4.48873 0.369266 4.46358 0.308594C4.43843 0.247922 4.40157 0.192822 4.35512 0.146393C4.30867 0.0999635 4.25351 0.063143 4.19283 0.0380249C4.13214 0.0129068 4.06712 -1.70571e-05 4.00144 1.69246e-08C3.86879 -3.4466e-05 3.74157 0.0526249 3.64775 0.146393C3.55394 0.240161 3.5012 0.367356 3.50116 0.5L3.50116 16.2917L0.854496 13.6458C0.760563 13.552 0.633274 13.4994 0.500583 13.4995C0.367893 13.4995 0.240645 13.5523 0.146793 13.6461C0.0529408 13.7399 0.000148296 13.8671 1.85966e-05 13.9998C-0.000111103 14.1324 0.0524378 14.2598 0.146106 14.3538L3.64786 17.8535C3.7417 17.9473 3.86894 18 4.00162 18C4.1343 18 4.26154 17.9473 4.35538 17.8535Z"/>
</svg>
