<svg width="18" height="8" viewBox="0 0 18 8" fill="none" xmlns="http://www.w3.org/2000/svg">
<path d="M0.146484 4.35648L3.6311 7.84296C3.71944 7.93435 3.83848 7.98984 3.96527 7.99874C4.09207 8.00763 4.21769 7.96931 4.31793 7.89115C4.37195 7.84676 4.4161 7.79157 4.44751 7.72911C4.47892 7.66665 4.49688 7.59831 4.50031 7.52848C4.50373 7.45864 4.4925 7.38887 4.46735 7.32364C4.44219 7.25841 4.40367 7.19916 4.35425 7.14971L1.70776 4.5028L17.5 4.5028C17.5657 4.50278 17.6307 4.48983 17.6914 4.46468C17.7521 4.43953 17.8072 4.40267 17.8536 4.35622C17.9 4.30977 17.9369 4.25461 17.962 4.19393C17.9871 4.13324 18 4.06821 18 4.00254C18 3.86989 17.9474 3.74267 17.8536 3.64885C17.7598 3.55503 17.6326 3.5023 17.5 3.50226L1.70825 3.50226L4.35425 0.855594C4.44797 0.761662 4.50061 0.634372 4.50055 0.501682C4.50049 0.368991 4.44774 0.241744 4.35394 0.147892C4.26014 0.0540395 4.13293 0.00124693 4.00024 0.00111723C3.86755 0.00098753 3.74022 0.0535364 3.64624 0.147205L0.146484 3.64896C0.0526886 3.7428 1.90735e-06 3.87004 0 4.00272C-1.90735e-06 4.1354 0.0526905 4.26264 0.146484 4.35648Z" />
</svg>
