<svg width="18" height="8" viewBox="0 0 18 8" fill="none" xmlns="http://www.w3.org/2000/svg">
<path d="M17.8535 3.64352L14.3689 0.15704C14.2806 0.0656497 14.1615 0.0101601 14.0347 0.00126332C13.9079 -0.00763345 13.7823 0.0306943 13.6821 0.108853C13.628 0.153235 13.5839 0.208426 13.5525 0.270886C13.5211 0.333346 13.5031 0.401693 13.4997 0.471524C13.4963 0.541355 13.5075 0.611125 13.5327 0.676358C13.5578 0.74159 13.5963 0.800841 13.6458 0.850293L16.2922 3.4972H0.5C0.434322 3.49722 0.369266 3.51017 0.308594 3.53532C0.247922 3.56047 0.192822 3.59733 0.146393 3.64378C0.0999635 3.69023 0.063143 3.74539 0.0380249 3.80607C0.0129068 3.86676 -1.70571e-05 3.93179 1.69246e-08 3.99746C-3.4466e-05 4.13011 0.0526249 4.25733 0.146393 4.35115C0.240161 4.44497 0.367356 4.4977 0.5 4.49774H16.2917L13.6458 7.14441C13.552 7.23834 13.4994 7.36563 13.4995 7.49832C13.4995 7.63101 13.5523 7.75826 13.6461 7.85211C13.7399 7.94596 13.8671 7.99875 13.9998 7.99888C14.1324 7.99901 14.2598 7.94646 14.3538 7.8528L17.8535 4.35104C17.9473 4.2572 18 4.12996 18 3.99728C18 3.8646 17.9473 3.73736 17.8535 3.64352Z"/>
</svg>
