<svg width="24" height="18" viewBox="0 0 24 18" fill="none" xmlns="http://www.w3.org/2000/svg">
<path d="M8.21616 3.76408C8.21609 3.96315 8.29513 4.15409 8.43585 4.29489C8.57657 4.4357 8.76746 4.51484 8.96652 4.51491H22.1039L19.642 10.4983H9.42902L5.29816 0.464478C5.24158 0.327058 5.14548 0.209543 5.022 0.126846C4.89853 0.0441495 4.75325 1.1913e-06 4.60464 0H0.75589C0.656591 3.01993e-05 0.558281 0.0196043 0.466553 0.0576324C0.374825 0.0956606 0.291476 0.151397 0.221283 0.221634C0.15109 0.29187 0.0954357 0.375243 0.0574646 0.466995C0.0194935 0.558747 -3.1484e-05 0.65708 3.81071e-08 0.756378C-3.1484e-05 0.855677 0.0194935 0.954009 0.0574646 1.04576C0.0954357 1.13751 0.15109 1.22089 0.221283 1.29112C0.291476 1.36136 0.374825 1.41708 0.466553 1.45511C0.558281 1.49314 0.656591 1.51273 0.75589 1.51276H4.07571L8.20087 11.5354C8.25744 11.6729 8.35356 11.7904 8.47705 11.8731C8.60054 11.9558 8.74584 12 8.89447 12H20.1765C20.3253 12 20.4707 11.9558 20.5943 11.8729C20.7178 11.7901 20.8139 11.6723 20.8704 11.5347L23.943 4.04866C23.9898 3.93469 24.0078 3.81093 23.9954 3.68835C23.9831 3.56578 23.9407 3.44814 23.8721 3.34581C23.8035 3.24348 23.7107 3.15961 23.602 3.10162C23.4933 3.04363 23.372 3.01331 23.2488 3.01331H8.96652C8.76746 3.01337 8.57657 3.09251 8.43585 3.23331C8.29514 3.3741 8.21611 3.56502 8.21616 3.76408Z"/>
<path d="M10.5356 13.5C10.0906 13.5 9.65562 13.632 9.28561 13.8792C8.9156 14.1264 8.6272 14.4778 8.4569 14.889C8.28661 15.3001 8.24207 15.7525 8.32888 16.1889C8.4157 16.6254 8.62997 17.0263 8.94464 17.341C9.2593 17.6557 9.66022 17.87 10.0967 17.9568C10.5331 18.0436 10.9855 17.999 11.3967 17.8287C11.8078 17.6584 12.1592 17.37 12.4065 17C12.6537 16.63 12.7856 16.195 12.7856 15.75C12.7856 15.1533 12.5486 14.581 12.1266 14.159C11.7047 13.7371 11.1324 13.5 10.5356 13.5ZM10.5356 16.5C10.3873 16.5 10.2423 16.456 10.119 16.3736C9.99562 16.2912 9.8995 16.1741 9.84274 16.037C9.78597 15.9 9.7711 15.7492 9.80004 15.6037C9.82898 15.4582 9.90042 15.3246 10.0053 15.2197C10.1102 15.1148 10.2438 15.0434 10.3893 15.0144C10.5348 14.9855 10.6856 15.0003 10.8227 15.0571C10.9597 15.1139 11.0768 15.21 11.1592 15.3333C11.2416 15.4567 11.2856 15.6017 11.2856 15.75C11.2856 15.9489 11.2066 16.1397 11.066 16.2803C10.9253 16.421 10.7346 16.5 10.5356 16.5Z"/>
<path d="M18.5356 13.5C18.0906 13.5 17.6556 13.632 17.2856 13.8792C16.9156 14.1264 16.6272 14.4778 16.4569 14.889C16.2866 15.3001 16.2421 15.7525 16.3289 16.1889C16.4157 16.6254 16.63 17.0263 16.9446 17.341C17.2593 17.6557 17.6602 17.87 18.0967 17.9568C18.5331 18.0436 18.9855 17.999 19.3967 17.8287C19.8078 17.6584 20.1592 17.37 20.4065 17C20.6537 16.63 20.7856 16.195 20.7856 15.75C20.7856 15.1533 20.5486 14.581 20.1266 14.159C19.7047 13.7371 19.1324 13.5 18.5356 13.5ZM18.5356 16.5C18.3873 16.5 18.2423 16.456 18.119 16.3736C17.9956 16.2912 17.8995 16.1741 17.8427 16.037C17.786 15.9 17.7711 15.7492 17.8 15.6037C17.829 15.4582 17.9004 15.3246 18.0053 15.2197C18.1102 15.1148 18.2438 15.0434 18.3893 15.0144C18.5348 14.9855 18.6856 15.0003 18.8227 15.0571C18.9597 15.1139 19.0768 15.21 19.1592 15.3333C19.2416 15.4567 19.2856 15.6017 19.2856 15.75C19.2856 15.9489 19.2066 16.1397 19.066 16.2803C18.9253 16.421 18.7346 16.5 18.5356 16.5Z"/>
</svg>
