<svg width="23" height="22" viewBox="0 0 23 22" fill="none" xmlns="http://www.w3.org/2000/svg">
<path d="M14.3333 2H1.5C1.10218 2 0.720644 2.15804 0.43934 2.43934C0.158035 2.72064 0 3.10218 0 3.5L0 12.184C0 12.5818 0.158035 12.9634 0.43934 13.2447C0.720644 13.526 1.10218 13.684 1.5 13.684H2.16553L1.62061 15.9046C1.59639 16.0032 1.60277 16.1068 1.63891 16.2017C1.67505 16.2966 1.73923 16.3783 1.82292 16.4358C1.9066 16.4933 2.00582 16.524 2.10736 16.5237C2.20891 16.5235 2.30797 16.4923 2.39136 16.4344L6.35083 13.684H14.3333C14.7311 13.684 15.1126 13.526 15.3939 13.2447C15.6752 12.9634 15.8333 12.5818 15.8333 12.184V3.5C15.8333 3.10218 15.6752 2.72064 15.3939 2.43934C15.1126 2.15804 14.7311 2 14.3333 2ZM14.3328 12.1838H5.88062L3.70776 13.6931L4.07788 12.1838H1.49976V3.49975H14.3328V12.1838Z" fill="black"/>
<path d="M18.3794 21.3791L17.8345 19.1585H18.5C18.8978 19.1585 19.2794 19.0005 19.5607 18.7191C19.842 18.4378 20 18.0563 20 17.6585V8.97449C20 8.57666 19.842 8.19513 19.5607 7.91383C19.2794 7.63252 18.8978 7.47449 18.5 7.47449H16.6667V8.97428H18.5002V17.6584H15.9221L16.2922 19.1676L14.1194 17.6584H5.66724V15.1739L4.16675 16.2161V17.6585C4.16675 18.0563 4.32478 18.4378 4.60609 18.7191C4.88739 19.0005 5.26892 19.1585 5.66675 19.1585H13.6492L17.6086 21.9088C17.692 21.9668 17.7911 21.998 17.8926 21.9982C17.9942 21.9985 18.0934 21.9678 18.1771 21.9103C18.2608 21.8528 18.325 21.7711 18.3611 21.6762C18.3972 21.5813 18.4036 21.4777 18.3794 21.3791Z" fill="black"/>
<path d="M20 6C21.6569 6 23 4.65685 23 3C23 1.34315 21.6569 0 20 0C18.3431 0 17 1.34315 17 3C17 4.65685 18.3431 6 20 6Z" fill="#008F43"/>
</svg>
