<svg width="30" height="48" viewBox="0 0 30 48" fill="none" xmlns="http://www.w3.org/2000/svg">
<path d="M11.588 0C8.60824 0 5.8611 0.688434 3.74195 1.90385C1.62281 3.11926 0 5.02377 0 7.38462V40.6154C0 42.8308 1.54506 44.6769 3.86266 46.1538L5.79399 36.9231L7.72532 47.6538C8.88412 47.8385 10.2361 48 11.588 48C17.9614 48 23.176 44.6769 23.176 40.6154V31.7308C23.176 29.8846 23.9485 28.2346 25.1073 26.9423L28.97 24C28.97 24 31.2876 21.9692 28.97 18.4615H26.073C24.5279 18.4615 23.176 17.1692 23.176 15.6923V7.38462C23.176 5.02377 21.5532 3.11926 19.434 1.90385C17.3149 0.688434 14.5677 0 11.588 0ZM11.588 3.69231C13.9415 3.69231 16.0665 4.28781 17.4423 5.07692C18.8182 5.86604 19.3133 6.68666 19.3133 7.38462C19.3133 8.08257 18.8182 8.90319 17.4423 9.69231C16.1773 10.4178 14.258 10.9334 12.1312 11.0192C8.76226 10.8238 5.16374 8.3826 8.87205 5.19231C5.34694 6.09088 4.85143 7.84431 5.06974 9.23077C4.23304 8.59245 3.86266 7.94463 3.86266 7.38462C3.86266 6.68666 4.35776 5.86604 5.73364 5.07692C7.10951 4.28781 9.2345 3.69231 11.588 3.69231ZM13.8814 5.71154C12.2815 5.71154 10.9844 6.46697 10.9844 7.38462C10.9844 8.30226 12.2815 9.05769 13.8814 9.05769C15.4814 9.05769 16.7784 8.30226 16.7784 7.38462C16.7784 6.46697 15.4814 5.71154 13.8814 5.71154Z" fill="white"/>
</svg>
