<svg width="40" height="48" viewBox="0 0 40 48" fill="none" xmlns="http://www.w3.org/2000/svg">
<path d="M39.9498 12.3552C39.893 11.0924 39.893 9.887 39.893 8.68161C39.893 7.70583 39.1542 6.95964 38.188 6.95964C31.0837 6.95964 25.6844 4.89327 21.1944 0.473543C20.5124 -0.157848 19.4894 -0.157848 18.8074 0.473543C14.3175 4.89327 8.91819 6.95964 1.81387 6.95964C0.847685 6.95964 0.108836 7.70583 0.108836 8.68161C0.108836 9.887 0.108836 11.0924 0.0520011 12.3552C-0.175337 24.409 -0.516345 40.9399 19.4326 47.8852L20.0009 48L20.5693 47.8852C40.4613 40.9399 40.1772 24.4664 39.9498 12.3552ZM18.6369 29.0583C18.2959 29.3453 17.898 29.5175 17.4434 29.5175H17.3865C16.9319 29.5175 16.4772 29.2879 16.193 28.9435L10.9074 23.0314L13.4649 20.7354L17.6139 25.3848L26.8211 16.5453L29.1513 19.0709L18.6369 29.0583Z" fill="white"/>
</svg>
