<svg width="54" height="48" viewBox="0 0 54 48" fill="none" xmlns="http://www.w3.org/2000/svg">
<path d="M2.7 0H51.3C52.0161 0 52.7028 0.280951 53.2092 0.781048C53.7155 1.28115 54 1.95942 54 2.66667V45.3333C54 46.0406 53.7155 46.7189 53.2092 47.219C52.7028 47.7191 52.0161 48 51.3 48H2.7C1.98392 48 1.29716 47.7191 0.790812 47.219C0.284463 46.7189 0 46.0406 0 45.3333V2.66667C0 1.95942 0.284463 1.28115 0.790812 0.781048C1.29716 0.280951 1.98392 0 2.7 0ZM24.3 14.6667V33.3333H29.7V14.6667H24.3ZM23.5305 14.6667H17.8227L13.7808 25.6347L9.7389 14.6667H4.0311L11.0808 33.2373H16.4808L23.5305 14.6667ZM37.8 28H41.85C43.6402 28 45.3571 27.2976 46.623 26.0474C47.8888 24.7971 48.6 23.1014 48.6 21.3333C48.6 19.5652 47.8888 17.8695 46.623 16.6193C45.3571 15.369 43.6402 14.6667 41.85 14.6667H32.4V33.3333H37.8V28ZM37.8 22.6667V20H41.85C42.208 20 42.5514 20.1405 42.8046 20.3905C43.0578 20.6406 43.2 20.9797 43.2 21.3333C43.2 21.687 43.0578 22.0261 42.8046 22.2761C42.5514 22.5262 42.208 22.6667 41.85 22.6667H37.8Z" fill="white"/>
</svg>
