<svg width="56" height="56" viewBox="0 0 56 56" fill="none" xmlns="http://www.w3.org/2000/svg">
<g filter="url(#filter0_ii)">
<path d="M55.9668 27.4477C55.8531 26.6799 55.6085 25.9373 55.2435 25.2522C54.7685 24.3231 54.2632 23.4094 53.7898 22.4793C53.3739 21.6562 53.1344 20.7552 53.0866 19.8342C53.0415 19.0579 53.0332 18.2796 52.9994 17.5025C52.9956 16.5809 52.8621 15.6644 52.6028 14.7801C52.3398 13.9533 51.825 13.2295 51.1304 12.7098C50.2907 12.0826 49.4179 11.5009 48.5159 10.9673C47.0785 10.1367 45.885 8.94256 45.0552 7.5048C44.5342 6.61306 43.9623 5.75203 43.3424 4.92599C42.9537 4.40632 42.4559 3.97809 41.884 3.67142C41.3121 3.36475 40.68 3.18709 40.0321 3.15091C39.2188 3.08097 38.4024 3.03775 37.5864 3.01135C36.6565 3.0259 35.7284 2.92181 34.8248 2.7016C34.1806 2.49433 33.5545 2.23443 32.9529 1.92452C32.0161 1.46941 31.115 0.939145 30.1706 0.501809C29.4947 0.171626 28.7524 0 28.0001 0C27.2479 0 26.5056 0.171626 25.8297 0.501809C24.8852 0.939145 23.9842 1.46941 23.0474 1.92452C22.4458 2.23443 21.8197 2.49433 21.1755 2.7016C20.2718 2.92181 19.3438 3.0259 18.4138 3.01135C17.5979 3.03775 16.7815 3.08097 15.9682 3.15091C15.3203 3.18709 14.6881 3.36475 14.1162 3.67142C13.5443 3.97809 13.0466 4.40632 12.6579 4.92599C12.038 5.75203 11.4661 6.61306 10.9451 7.5048C10.1152 8.94256 8.92172 10.1367 7.48438 10.9673C6.58235 11.5009 5.70959 12.0826 4.86987 12.7098C4.17523 13.2295 3.66042 13.9533 3.39747 14.7801C3.13816 15.6644 3.00465 16.5809 3.0009 17.5025C2.96703 18.2795 2.95875 19.0579 2.91368 19.8342C2.86589 20.7552 2.62637 21.6562 2.21045 22.4793C1.73707 23.4094 1.23178 24.323 0.756729 25.2522C0.39177 25.9373 0.147124 26.6799 0.0334452 27.4477C-0.0111484 27.8146 -0.0111484 28.1854 0.0334452 28.5523C0.147124 29.3201 0.39177 30.0627 0.756729 30.7478C1.23178 31.6769 1.7371 32.5906 2.21045 33.5206C2.62637 34.3438 2.86589 35.2447 2.91368 36.1658C2.95875 36.9421 2.96705 37.7204 3.0009 38.4975C3.00465 39.4191 3.13816 40.3356 3.39747 41.2199C3.66042 42.0467 4.17523 42.7705 4.86987 43.2902C5.70959 43.9174 6.58235 44.4991 7.48438 45.0327C8.92172 45.8633 10.1152 47.0574 10.9451 48.4952C11.4661 49.3869 12.038 50.248 12.6579 51.074C13.0466 51.5937 13.5443 52.0219 14.1162 52.3286C14.6881 52.6352 15.3203 52.8129 15.9682 52.8491C16.7815 52.919 17.5979 52.9622 18.4138 52.9886C19.3438 52.9741 20.2718 53.0782 21.1755 53.2984C21.8197 53.5057 22.4458 53.7656 23.0474 54.0755C23.9842 54.5306 24.8852 55.0609 25.8297 55.4982C26.5056 55.8284 27.2479 56 28.0001 56C28.7524 56 29.4947 55.8284 30.1706 55.4982C31.115 55.0609 32.0161 54.5306 32.9529 54.0755C33.5545 53.7656 34.1806 53.5057 34.8248 53.2984C35.7284 53.0782 36.6565 52.9741 37.5864 52.9886C38.4024 52.9622 39.2188 52.919 40.0321 52.8491C40.68 52.8129 41.3121 52.6352 41.884 52.3286C42.4559 52.0219 42.9537 51.5937 43.3424 51.074C43.9623 50.248 44.5342 49.3869 45.0552 48.4952C45.885 47.0574 47.0785 45.8633 48.5159 45.0327C49.4179 44.4991 50.2907 43.9174 51.1304 43.2902C51.825 42.7705 52.3398 42.0467 52.6028 41.2199C52.8621 40.3356 52.9956 39.4191 52.9994 38.4975C53.0332 37.7205 53.0415 36.9421 53.0866 36.1658C53.1344 35.2447 53.3739 34.3438 53.7898 33.5206C54.2632 32.5906 54.7685 31.677 55.2435 30.7478C55.6085 30.0627 55.8531 29.3201 55.9668 28.5523C56.0114 28.1854 56.0114 27.8146 55.9668 27.4477Z" fill="url(#paint0_linear)"/>
</g>
<path d="M53.9137 25.9463L53.908 25.9351C53.6824 25.4938 53.449 25.0546 53.209 24.6031L53.1914 24.57C52.9473 24.1105 52.6966 23.6383 52.453 23.1597L52.451 23.1558C51.9416 22.1477 51.648 21.0445 51.5888 19.9166C51.562 19.4525 51.5463 18.9416 51.5316 18.4583C51.5219 18.1429 51.5126 17.8392 51.5008 17.5678L51.4995 17.5382L51.4994 17.5086C51.4962 16.7339 51.3848 15.9635 51.1685 15.2196C50.999 14.6973 50.6719 14.2401 50.232 13.911L53.9137 25.9463ZM53.9137 25.9463L53.9197 25.9575M53.9137 25.9463L53.9197 25.9575M53.9197 25.9575C54.2007 26.4851 54.3902 27.0565 54.48 27.6475C54.507 27.8817 54.507 28.1183 54.48 28.3525C54.3902 28.9435 54.2007 29.5149 53.9197 30.0425L53.9137 30.0537L53.908 30.0649C53.6823 30.5063 53.4489 30.9455 53.209 31.3971L53.1915 31.43C52.9473 31.8895 52.6966 32.3617 52.453 32.8402L52.451 32.8442C51.9416 33.8523 51.648 34.9555 51.5888 36.0834C51.562 36.5473 51.5464 37.0581 51.5316 37.5414C51.5219 37.8569 51.5126 38.1608 51.5008 38.4322L51.4995 38.4618L51.4994 38.4914C51.4962 39.2661 51.3848 40.0365 51.1685 40.7804C50.9989 41.3028 50.6718 41.76 50.2318 42.0892C49.4374 42.6824 48.6118 43.2328 47.7586 43.7379C46.0975 44.6994 44.7179 46.0802 43.7579 47.7422C43.2665 48.5829 42.7272 49.3948 42.1426 50.1736L42.1411 50.1756C41.8837 50.5199 41.554 50.8035 41.1752 51.0066C40.7963 51.2098 40.3776 51.3275 39.9484 51.3514L39.926 51.3527L39.9035 51.3546C39.134 51.4208 38.3566 51.4625 37.5726 51.4883C36.5276 51.4751 35.4851 51.5936 34.4696 51.841L34.417 51.8539L34.3654 51.8705C33.6485 52.1011 32.9516 52.3899 32.2817 52.7339C31.8417 52.9481 31.4103 53.1772 31.0057 53.392C30.9574 53.4176 30.9095 53.4431 30.8619 53.4683C30.4015 53.7124 29.972 53.9371 29.5403 54.137L29.5262 54.1436L29.5122 54.1504C29.0413 54.3804 28.5242 54.5 28.0001 54.5C27.4761 54.5 26.959 54.3804 26.4881 54.1504L26.4741 54.1436L26.46 54.137C26.0283 53.9371 25.5988 53.7124 25.1383 53.4683C25.0908 53.4431 25.0429 53.4176 24.9946 53.392C24.59 53.1772 24.1585 52.9481 23.7185 52.7339C23.0486 52.3899 22.3518 52.1011 21.6349 51.8705L21.5833 51.8539L21.5306 51.841C20.5152 51.5936 19.4727 51.4751 18.4277 51.4883C17.6437 51.4625 16.8662 51.4208 16.0967 51.3546L16.0743 51.3527L16.0518 51.3514C15.6226 51.3275 15.2039 51.2098 14.8251 51.0066C14.4463 50.8035 14.1166 50.5198 13.8591 50.1756L13.8576 50.1736M53.9197 25.9575L13.8576 50.1736M42.1426 5.82636L42.1411 5.82438C41.8837 5.48014 41.554 5.19649 41.1752 4.99336C40.7963 4.79023 40.3776 4.67254 39.9484 4.64858L39.926 4.64732L39.9035 4.64539C39.134 4.57922 38.3566 4.53753 37.5725 4.51169C36.5276 4.52491 35.485 4.4064 34.4696 4.15894L34.417 4.14611L34.3654 4.12951C33.6485 3.89887 32.9517 3.61011 32.2818 3.26612C31.8418 3.05191 31.4103 2.82282 31.0057 2.60802C30.9574 2.58238 30.9095 2.55693 30.8619 2.53174C30.4015 2.2876 29.972 2.06287 29.5403 1.86296L29.5262 1.85642L29.5122 1.84959C29.0413 1.61956 28.5242 1.5 28.0001 1.5C27.4761 1.5 26.959 1.61956 26.4881 1.84959L26.4741 1.85642L26.46 1.86296C26.0283 2.06287 25.5988 2.28761 25.1383 2.53174C25.0908 2.55694 25.0428 2.5824 24.9945 2.60805C24.59 2.82283 24.1585 3.05191 23.7185 3.26612C23.0486 3.61011 22.3518 3.89886 21.6349 4.12951L21.5833 4.14611L21.5306 4.15894C20.5152 4.4064 19.4727 4.52491 18.4277 4.51169C17.6437 4.53753 16.8662 4.57922 16.0967 4.64539L16.0743 4.64732L16.0518 4.64858C15.6226 4.67254 15.2039 4.79023 14.8251 4.99336C14.4463 5.1965 14.1166 5.48015 13.8591 5.82438L13.8576 5.82636C13.273 6.6054 12.7336 7.41739 12.2421 8.25833C11.2821 9.92002 9.90276 11.3006 8.24193 12.2619C7.38864 12.7671 6.56297 13.3175 5.76847 13.9108L42.1426 5.82636ZM42.1426 5.82636C42.7272 6.60534 43.2666 7.41727 43.758 8.25813C44.718 9.91992 46.0975 11.3006 47.7584 12.262M42.1426 5.82636L47.7584 12.262M4.50076 17.5382L4.49947 17.5678C4.48765 17.8392 4.47835 18.143 4.46869 18.4586C4.4539 18.9419 4.43826 19.4527 4.41142 19.9166C4.35224 21.0445 4.05862 22.1477 3.54925 23.1558L3.54724 23.1598C3.30366 23.6383 3.05296 24.1105 2.80881 24.57L2.79159 24.6024C2.55153 25.0541 2.31803 25.4935 2.09231 25.935L2.08654 25.9463L2.08058 25.9575C1.79951 26.4851 1.61007 27.0565 1.52027 27.6474C1.49324 27.8817 1.49324 28.1183 1.52027 28.3526C1.61007 28.9435 1.79951 29.5149 2.08058 30.0425L2.08654 30.0537L2.0923 30.0649C2.31786 30.5061 2.55119 30.9452 2.79108 31.3966L2.80882 31.43C3.05298 31.8895 3.30369 32.3617 3.54726 32.8403L3.54926 32.8442C4.05862 33.8523 4.35224 34.9555 4.41142 36.0833C4.43828 36.5475 4.45391 37.0584 4.46871 37.5418C4.47836 37.8572 4.48766 38.1609 4.49947 38.4322L4.50076 38.4618L4.50088 38.4914C4.50404 39.2661 4.61542 40.0365 4.83175 40.7804C5.0013 41.3026 5.32834 41.7598 5.76817 42.089L4.50076 17.5382ZM4.50076 17.5382L4.50088 17.5086M4.50076 17.5382L4.50088 17.5086M4.50088 17.5086C4.50404 16.7339 4.61542 15.9635 4.83176 15.2196M4.50088 17.5086L4.83176 15.2196M13.8576 50.1736C13.2729 49.3946 12.7335 48.5826 12.2421 47.7416C11.2821 46.0799 9.90265 44.6993 8.24177 43.738M13.8576 50.1736L8.24177 43.738M47.7584 12.262C48.6117 12.7671 49.4373 13.3175 50.2318 13.9108L47.7584 12.262ZM4.83176 15.2196C5.00132 14.6973 5.32842 14.2401 5.76832 13.9109L4.83176 15.2196ZM8.24177 43.738C7.38854 43.2329 6.56292 42.6825 5.76847 42.0892L8.24177 43.738Z" stroke="url(#paint1_linear)" stroke-width="3"/>
<path d="M23 18C22.0111 18 21.0444 18.2932 20.2221 18.8427C19.3999 19.3921 18.759 20.173 18.3806 21.0866C18.0022 22.0002 17.9032 23.0055 18.0961 23.9754C18.289 24.9454 18.7652 25.8363 19.4645 26.5355C20.1637 27.2348 21.0546 27.711 22.0246 27.9039C22.9945 28.0968 23.9998 27.9978 24.9134 27.6194C25.827 27.241 26.6079 26.6001 27.1573 25.7779C27.7068 24.9556 28 23.9889 28 23C28 21.6739 27.4732 20.4021 26.5355 19.4645C25.5979 18.5268 24.3261 18 23 18ZM23 26C22.4067 26 21.8266 25.8241 21.3333 25.4944C20.8399 25.1648 20.4554 24.6962 20.2284 24.148C20.0013 23.5999 19.9419 22.9967 20.0576 22.4147C20.1734 21.8328 20.4591 21.2982 20.8787 20.8787C21.2982 20.4591 21.8328 20.1734 22.4147 20.0576C22.9967 19.9419 23.5999 20.0013 24.148 20.2284C24.6962 20.4554 25.1648 20.8399 25.4944 21.3333C25.8241 21.8266 26 22.4067 26 23C26 23.7956 25.6839 24.5587 25.1213 25.1213C24.5587 25.6839 23.7957 26 23 26Z" fill="black"/>
<path d="M35.6006 18.9863L18.9883 35.5986C18.5978 35.9891 18.5978 36.6222 18.9883 37.0127L18.9883 37.0127C19.3788 37.4032 20.0119 37.4032 20.4023 37.0127L37.0146 20.4004C37.4051 20.0099 37.4051 19.3768 37.0146 18.9863C36.6241 18.5958 35.9911 18.5958 35.6006 18.9863Z" fill="black"/>
<path d="M33 28C32.0111 28 31.0444 28.2932 30.2221 28.8427C29.3999 29.3921 28.759 30.1729 28.3806 31.0866C28.0022 32.0002 27.9032 33.0055 28.0961 33.9754C28.289 34.9454 28.7652 35.8363 29.4645 36.5355C30.1637 37.2348 31.0546 37.711 32.0246 37.9039C32.9945 38.0968 33.9998 37.9978 34.9134 37.6194C35.827 37.241 36.6079 36.6001 37.1573 35.7778C37.7068 34.9556 38 33.9889 38 33C38 31.6739 37.4732 30.4021 36.5355 29.4645C35.5979 28.5268 34.3261 28 33 28ZM33 36C32.4067 36 31.8266 35.8241 31.3333 35.4944C30.8399 35.1648 30.4554 34.6962 30.2284 34.148C30.0013 33.5999 29.9419 32.9967 30.0576 32.4147C30.1734 31.8328 30.4591 31.2982 30.8787 30.8787C31.2982 30.4591 31.8328 30.1734 32.4147 30.0576C32.9967 29.9419 33.5999 30.0013 34.148 30.2284C34.6962 30.4554 35.1648 30.8399 35.4944 31.3333C35.8241 31.8266 36 32.4067 36 33C36 33.7956 35.6839 34.5587 35.1213 35.1213C34.5587 35.6839 33.7957 36 33 36Z" fill="black"/>
<circle cx="28" cy="28" r="17" stroke="black" stroke-width="2"/>
<defs>
<filter id="filter0_ii" x="-4" y="-4" width="63.0003" height="63" filterUnits="userSpaceOnUse" color-interpolation-filters="sRGB">
<feFlood flood-opacity="0" result="BackgroundImageFix"/>
<feBlend mode="normal" in="SourceGraphic" in2="BackgroundImageFix" result="shape"/>
<feColorMatrix in="SourceAlpha" type="matrix" values="0 0 0 0 0 0 0 0 0 0 0 0 0 0 0 0 0 0 127 0" result="hardAlpha"/>
<feOffset dx="4" dy="4"/>
<feGaussianBlur stdDeviation="1.5"/>
<feComposite in2="hardAlpha" operator="arithmetic" k2="-1" k3="1"/>
<feColorMatrix type="matrix" values="0 0 0 0 0 0 0 0 0 0 0 0 0 0 0 0 0 0 0.1 0"/>
<feBlend mode="normal" in2="shape" result="effect1_innerShadow"/>
<feColorMatrix in="SourceAlpha" type="matrix" values="0 0 0 0 0 0 0 0 0 0 0 0 0 0 0 0 0 0 127 0" result="hardAlpha"/>
<feOffset dx="-4" dy="-4"/>
<feGaussianBlur stdDeviation="2.5"/>
<feComposite in2="hardAlpha" operator="arithmetic" k2="-1" k3="1"/>
<feColorMatrix type="matrix" values="0 0 0 0 1 0 0 0 0 1 0 0 0 0 1 0 0 0 0.2 0"/>
<feBlend mode="normal" in2="effect1_innerShadow" result="effect2_innerShadow"/>
</filter>
<linearGradient id="paint0_linear" x1="0" y1="0" x2="56.0002" y2="56.0002" gradientUnits="userSpaceOnUse">
<stop stop-color="#FFB700"/>
<stop offset="1" stop-color="#FFCC33"/>
</linearGradient>
<linearGradient id="paint1_linear" x1="0" y1="0" x2="56.0002" y2="56.0002" gradientUnits="userSpaceOnUse">
<stop offset="0.154274" stop-color="#E0E0E0"/>
<stop offset="0.852768" stop-color="#FAFAFA"/>
</linearGradient>
</defs>
</svg>
