<svg width="30" height="24" viewBox="0 0 30 24" fill="none" xmlns="http://www.w3.org/2000/svg">
<path d="M14.9949 7.27905C13.0166 7.27905 11.5249 8.22272 11.5249 9.4736V11.8975C11.5249 13.1483 13.0166 14.092 14.9949 14.092C16.9716 14.092 18.4622 13.1484 18.4622 11.8975V9.4736C18.4622 8.22272 16.9716 7.27905 14.9949 7.27905ZM14.9949 10.1259C13.8534 10.1259 13.1389 9.88284 13.1305 9.49359V9.48202C13.1384 9.21269 13.8069 8.82133 14.9949 8.82133C16.1296 8.82133 16.8535 9.20743 16.8535 9.4736C16.8535 9.73976 16.1296 10.1259 14.9949 10.1259ZM13.1305 11.8838V11.301C14.3381 11.7176 15.6491 11.7176 16.8566 11.301V11.8838H16.8535V11.8975C16.8535 12.1594 16.1463 12.5245 14.9949 12.5245C13.8262 12.5245 13.1284 12.2951 13.1295 11.909L13.1332 11.9006L13.1347 11.8838L13.1305 11.8838Z" fill="#525566"/>
<path d="M7.8967 3.64014C5.91893 3.64014 4.42725 4.58381 4.42725 5.83468V8.25964C4.42725 9.51047 5.91893 10.4542 7.8967 10.4542C9.87395 10.4542 11.3646 9.51051 11.3646 8.25964V5.83468C11.3646 4.58381 9.87398 3.64014 7.8967 3.64014ZM6.03288 8.2449V7.66313C7.24025 8.08079 8.55159 8.08079 9.75895 7.66313V8.2449H9.75581V8.25964C9.75581 8.52059 9.04868 8.8856 7.8967 8.8856C6.72855 8.8856 6.0308 8.65626 6.03184 8.2712L6.0355 8.26173L6.03602 8.2449H6.03288ZM7.8967 6.48695C6.7552 6.48695 6.04124 6.24498 6.03288 5.85572V5.84309C6.04072 5.57483 6.70868 5.18452 7.8967 5.18452C9.03141 5.18452 9.75581 5.56957 9.75581 5.83468C9.75581 6.10085 9.03141 6.48695 7.8967 6.48695Z" fill="#525566"/>
<path d="M22.094 3.64014C20.1162 3.64014 18.6245 4.58381 18.6245 5.83468V8.25964C18.6245 9.51047 20.1162 10.4542 22.094 10.4542C24.0712 10.4542 25.5619 9.51051 25.5619 8.25964V5.83468C25.5619 4.58381 24.0712 3.64014 22.094 3.64014ZM20.2301 8.2449V7.66313C21.4376 8.07973 22.7487 8.07973 23.9562 7.66313V8.2449H23.9531V8.25964C23.9531 8.52059 23.2459 8.8856 22.094 8.8856C20.9258 8.8856 20.2281 8.65626 20.2291 8.2712L20.2327 8.26173L20.2332 8.2449H20.2301ZM22.094 6.48695C20.9525 6.48695 20.2385 6.24498 20.2301 5.85572V5.84309C20.2379 5.57483 20.9059 5.18452 22.094 5.18452C23.2287 5.18452 23.9531 5.56957 23.9531 5.83468C23.9531 6.10085 23.2287 6.48695 22.094 6.48695Z" fill="#525566"/>
<path d="M14.9954 0C13.0171 0 11.5254 0.943684 11.5254 2.19561V4.61845C11.5254 5.87036 13.0171 6.81404 14.9954 6.81404C16.9721 6.81404 18.4627 5.87037 18.4627 4.61845V2.19561C18.4627 0.943684 16.9721 0 14.9954 0ZM14.9954 2.84681C13.8539 2.84681 13.1394 2.60485 13.131 2.2156V2.20402C13.1389 1.9347 13.8073 1.54334 14.9954 1.54334C16.1301 1.54334 16.854 1.92944 16.854 2.19561C16.854 2.46072 16.1301 2.84681 14.9954 2.84681ZM13.131 4.60476V4.02299C14.3389 4.43749 15.6492 4.43749 16.8571 4.02299V4.60476H16.854V4.61845C16.854 4.8804 16.1468 5.24546 14.9954 5.24546C13.8267 5.24546 13.129 5.01611 13.1305 4.63002L13.1352 4.60476H13.131Z" fill="#525566"/>
<path d="M29.6498 8.54995C29.4215 8.17304 29.0937 7.86744 28.7028 7.66728L26.3481 6.45635L26.3278 6.44583V8.26061L27.4311 8.82767L15 15.2009L2.5689 8.82767L3.6644 8.26479L3.67225 8.26058V6.4458L1.2973 7.66721C0.906952 7.86801 0.579222 8.17336 0.35032 8.54963C0.121418 8.92591 0.000195281 9.3585 0 9.79969V15.1346C0.000305282 15.5765 0.121905 16.0098 0.351366 16.3867C0.580828 16.7635 0.909219 17.0693 1.30038 17.2702L13.9202 23.7381C14.2545 23.91 14.6246 23.9998 15 24.0001C15.3756 23.9985 15.7457 23.9088 16.0809 23.7381L28.7007 17.266C29.0916 17.0651 29.4198 16.7595 29.6491 16.3829C29.8784 16.0062 29.9998 15.5731 30 15.1314V9.79969C29.9998 9.35861 29.8787 8.92612 29.6498 8.54995ZM14.1971 22.0686L2.02894 15.8279C1.90129 15.7637 1.79426 15.6645 1.72008 15.5418C1.64504 15.419 1.60537 15.2777 1.60557 15.1336V10.1469L14.1971 16.6022V22.0686ZM28.3944 15.1325C28.3945 15.2766 28.3551 15.4178 28.2804 15.5407C28.2052 15.6623 28.0986 15.7612 27.972 15.8269L15.8028 22.0675V16.6022L28.3944 10.1469V15.1325Z" fill="#525566"/>
</svg>
