<svg width="72" height="72" viewBox="0 0 72 72" fill="none" xmlns="http://www.w3.org/2000/svg">
<path d="M71.957 35.2899C71.8108 34.3027 71.4963 33.3479 71.0271 32.4672C70.4163 31.2725 69.7666 30.0978 69.158 28.902C68.6233 27.8437 68.3153 26.6853 68.2539 25.5011C68.1959 24.503 68.1852 23.5023 68.1417 22.5032C68.1369 21.3183 67.9653 20.14 67.6319 19.0029C67.2938 17.94 66.6319 17.0093 65.7388 16.3411C64.6591 15.5348 63.537 14.7869 62.3773 14.1008C60.5293 13.0329 58.9948 11.4976 57.9278 9.64903C57.258 8.5025 56.5227 7.39547 55.7256 6.33342C55.2259 5.66527 54.5859 5.11469 53.8506 4.7204C53.1153 4.32611 52.3026 4.09768 51.4696 4.05117C50.4239 3.96125 49.3742 3.90567 48.3252 3.87173C47.1295 3.89045 45.9363 3.75662 44.7745 3.47348C43.9462 3.20699 43.1413 2.87283 42.3678 2.47438C41.1634 1.88924 40.0049 1.20747 38.7906 0.645183C37.9216 0.220662 36.9672 0 36 0C35.0329 0 34.0784 0.220662 33.2094 0.645183C31.9952 1.20747 30.8366 1.88924 29.6322 2.47438C28.8587 2.87283 28.0538 3.20699 27.2255 3.47348C26.0637 3.75662 24.8705 3.89045 23.6748 3.87173C22.6258 3.90567 21.5761 3.96125 20.5304 4.05117C19.6974 4.09768 18.8847 4.32611 18.1494 4.7204C17.4141 5.11469 16.7741 5.66527 16.2744 6.33342C15.4773 7.39547 14.7421 8.5025 14.0722 9.64903C13.0053 11.4976 11.4707 13.0329 9.62273 14.1008C8.46298 14.7869 7.34087 15.5348 6.26123 16.3411C5.36813 17.0093 4.70623 17.94 4.36815 19.0029C4.03475 20.14 3.86311 21.3183 3.85828 22.5032C3.81474 23.5022 3.80409 24.503 3.74614 25.5011C3.6847 26.6853 3.37675 27.8437 2.84199 28.902C2.23337 30.0977 1.58371 31.2725 0.972933 32.4672C0.503702 33.3479 0.189158 34.3027 0.0430007 35.2899C-0.0143336 35.7616 -0.0143336 36.2384 0.0430007 36.71C0.189158 37.6973 0.503702 38.6521 0.972933 39.5328C1.58371 40.7275 2.23341 41.9022 2.84199 43.098C3.37675 44.1563 3.6847 45.3147 3.74614 46.4989C3.80409 47.497 3.81476 48.4977 3.85828 49.4968C3.86311 50.6817 4.03475 51.86 4.36815 52.997C4.70623 54.06 5.36813 54.9907 6.26123 55.6589C7.34087 56.4652 8.46298 57.2131 9.62273 57.8992C11.4707 58.9671 13.0053 60.5024 14.0722 62.351C14.7421 63.4975 15.4773 64.6045 16.2744 65.6666C16.7741 66.3347 17.4141 66.8853 18.1494 67.2796C18.8847 67.6739 19.6974 67.9023 20.5304 67.9488C21.5761 68.0387 22.6258 68.0943 23.6748 68.1283C24.8705 68.1095 26.0637 68.2434 27.2255 68.5265C28.0538 68.793 28.8587 69.1272 29.6322 69.5256C30.8366 70.1108 31.9952 70.7925 33.2094 71.3548C34.0784 71.7793 35.0329 72 36 72C36.9672 72 37.9216 71.7793 38.7906 71.3548C40.0049 70.7925 41.1634 70.1108 42.3678 69.5256C43.1413 69.1272 43.9462 68.793 44.7745 68.5265C45.9363 68.2434 47.1295 68.1095 48.3252 68.1283C49.3743 68.0943 50.4239 68.0387 51.4696 67.9488C52.3026 67.9023 53.1153 67.6739 53.8506 67.2796C54.5859 66.8853 55.2259 66.3347 55.7256 65.6666C56.5227 64.6045 57.258 63.4975 57.9278 62.351C58.9948 60.5024 60.5293 58.9671 62.3773 57.8992C63.537 57.2131 64.6591 56.4652 65.7388 55.6589C66.6319 54.9907 67.2938 54.06 67.6319 52.997C67.9653 51.86 68.1369 50.6817 68.1417 49.4968C68.1853 48.4978 68.1959 47.497 68.2539 46.4989C68.3153 45.3147 68.6233 44.1563 69.158 43.098C69.7666 41.9022 70.4163 40.7275 71.0271 39.5328C71.4963 38.6521 71.8108 37.6973 71.957 36.71C72.0143 36.2384 72.0143 35.7616 71.957 35.2899Z" fill="url(#paint0_linear)"/>
<g filter="url(#filter0_ii)">
<path d="M63.9668 35.4477C63.8531 34.6799 63.6085 33.9373 63.2435 33.2522C62.7685 32.3231 62.2632 31.4094 61.7898 30.4793C61.3739 29.6562 61.1344 28.7552 61.0866 27.8342C61.0415 27.0579 61.0332 26.2796 60.9994 25.5025C60.9956 24.5809 60.8621 23.6644 60.6028 22.7801C60.3398 21.9533 59.825 21.2295 59.1304 20.7098C58.2907 20.0826 57.4179 19.5009 56.5159 18.9673C55.0785 18.1367 53.885 16.9426 53.0552 15.5048C52.5342 14.6131 51.9623 13.752 51.3424 12.926C50.9537 12.4063 50.4559 11.9781 49.884 11.6714C49.3121 11.3648 48.68 11.1871 48.0321 11.1509C47.2188 11.081 46.4024 11.0377 45.5864 11.0113C44.6565 11.0259 43.7284 10.9218 42.8248 10.7016C42.1806 10.4943 41.5545 10.2344 40.9529 9.92452C40.0161 9.46941 39.115 8.93914 38.1706 8.50181C37.4947 8.17163 36.7524 8 36.0001 8C35.2479 8 34.5056 8.17163 33.8297 8.50181C32.8852 8.93914 31.9842 9.46941 31.0474 9.92452C30.4458 10.2344 29.8197 10.4943 29.1755 10.7016C28.2718 10.9218 27.3438 11.0259 26.4138 11.0113C25.5979 11.0377 24.7815 11.081 23.9682 11.1509C23.3203 11.1871 22.6881 11.3648 22.1162 11.6714C21.5443 11.9781 21.0466 12.4063 20.6579 12.926C20.038 13.752 19.4661 14.6131 18.9451 15.5048C18.1152 16.9426 16.9217 18.1367 15.4844 18.9673C14.5824 19.5009 13.7096 20.0826 12.8699 20.7098C12.1752 21.2295 11.6604 21.9533 11.3975 22.7801C11.1382 23.6644 11.0047 24.5809 11.0009 25.5025C10.967 26.2795 10.9587 27.0579 10.9137 27.8342C10.8659 28.7552 10.6264 29.6562 10.2104 30.4793C9.73707 31.4094 9.23178 32.323 8.75673 33.2522C8.39177 33.9373 8.14712 34.6799 8.03345 35.4477C7.98885 35.8146 7.98885 36.1854 8.03345 36.5523C8.14712 37.3201 8.39177 38.0627 8.75673 38.7478C9.23178 39.6769 9.7371 40.5906 10.2104 41.5206C10.6264 42.3438 10.8659 43.2447 10.9137 44.1658C10.9587 44.9421 10.9671 45.7204 11.0009 46.4975C11.0047 47.4191 11.1382 48.3356 11.3975 49.2199C11.6604 50.0467 12.1752 50.7705 12.8699 51.2902C13.7096 51.9174 14.5824 52.4991 15.4844 53.0327C16.9217 53.8633 18.1152 55.0574 18.9451 56.4952C19.4661 57.3869 20.038 58.248 20.6579 59.074C21.0466 59.5937 21.5443 60.0219 22.1162 60.3286C22.6881 60.6352 23.3203 60.8129 23.9682 60.8491C24.7815 60.919 25.5979 60.9623 26.4138 60.9886C27.3438 60.9741 28.2718 61.0782 29.1755 61.2984C29.8197 61.5057 30.4458 61.7656 31.0474 62.0755C31.9842 62.5306 32.8852 63.0609 33.8297 63.4982C34.5056 63.8284 35.2479 64 36.0001 64C36.7524 64 37.4947 63.8284 38.1706 63.4982C39.115 63.0609 40.0161 62.5306 40.9529 62.0755C41.5545 61.7656 42.1806 61.5057 42.8248 61.2984C43.7284 61.0782 44.6565 60.9741 45.5864 60.9886C46.4024 60.9623 47.2188 60.919 48.0321 60.8491C48.68 60.8129 49.3121 60.6352 49.884 60.3286C50.4559 60.0219 50.9537 59.5937 51.3424 59.074C51.9623 58.248 52.5342 57.3869 53.0552 56.4952C53.885 55.0574 55.0785 53.8633 56.5159 53.0327C57.4179 52.4991 58.2907 51.9174 59.1304 51.2902C59.825 50.7705 60.3398 50.0467 60.6028 49.2199C60.8621 48.3356 60.9956 47.4191 60.9994 46.4975C61.0332 45.7205 61.0415 44.9421 61.0866 44.1658C61.1344 43.2447 61.3739 42.3438 61.7898 41.5206C62.2632 40.5906 62.7685 39.677 63.2435 38.7478C63.6085 38.0627 63.8531 37.3201 63.9668 36.5523C64.0114 36.1854 64.0114 35.8146 63.9668 35.4477V35.4477Z" fill="url(#paint1_linear)"/>
</g>
<path d="M63.9668 35.4477C63.8531 34.6799 63.6085 33.9373 63.2435 33.2522C62.7685 32.3231 62.2632 31.4094 61.7898 30.4793C61.3739 29.6562 61.1344 28.7552 61.0866 27.8342C61.0415 27.0579 61.0332 26.2796 60.9994 25.5025C60.9956 24.5809 60.8621 23.6644 60.6028 22.7801C60.3398 21.9533 59.825 21.2295 59.1304 20.7098C58.2907 20.0826 57.4179 19.5009 56.5159 18.9673C55.0785 18.1367 53.885 16.9426 53.0552 15.5048C52.5342 14.6131 51.9623 13.752 51.3424 12.926C50.9537 12.4063 50.4559 11.9781 49.884 11.6714C49.3121 11.3648 48.68 11.1871 48.0321 11.1509C47.2188 11.081 46.4024 11.0377 45.5864 11.0113C44.6565 11.0259 43.7284 10.9218 42.8248 10.7016C42.1806 10.4943 41.5545 10.2344 40.9529 9.92452C40.0161 9.46941 39.115 8.93914 38.1706 8.50181C37.4947 8.17163 36.7524 8 36.0001 8C35.2479 8 34.5056 8.17163 33.8297 8.50181C32.8852 8.93914 31.9842 9.46941 31.0474 9.92452C30.4458 10.2344 29.8197 10.4943 29.1755 10.7016C28.2718 10.9218 27.3438 11.0259 26.4138 11.0113C25.5979 11.0377 24.7815 11.081 23.9682 11.1509C23.3203 11.1871 22.6881 11.3648 22.1162 11.6714C21.5443 11.9781 21.0466 12.4063 20.6579 12.926C20.038 13.752 19.4661 14.6131 18.9451 15.5048C18.1152 16.9426 16.9217 18.1367 15.4844 18.9673C14.5824 19.5009 13.7096 20.0826 12.8699 20.7098C12.1752 21.2295 11.6604 21.9533 11.3975 22.7801C11.1382 23.6644 11.0047 24.5809 11.0009 25.5025C10.967 26.2795 10.9587 27.0579 10.9137 27.8342C10.8659 28.7552 10.6264 29.6562 10.2104 30.4793C9.73707 31.4094 9.23178 32.323 8.75673 33.2522C8.39177 33.9373 8.14712 34.6799 8.03345 35.4477C7.98885 35.8146 7.98885 36.1854 8.03345 36.5523C8.14712 37.3201 8.39177 38.0627 8.75673 38.7478C9.23178 39.6769 9.7371 40.5906 10.2104 41.5206C10.6264 42.3438 10.8659 43.2447 10.9137 44.1658C10.9587 44.9421 10.9671 45.7204 11.0009 46.4975C11.0047 47.4191 11.1382 48.3356 11.3975 49.2199C11.6604 50.0467 12.1752 50.7705 12.8699 51.2902C13.7096 51.9174 14.5824 52.4991 15.4844 53.0327C16.9217 53.8633 18.1152 55.0574 18.9451 56.4952C19.4661 57.3869 20.038 58.248 20.6579 59.074C21.0466 59.5937 21.5443 60.0219 22.1162 60.3286C22.6881 60.6352 23.3203 60.8129 23.9682 60.8491C24.7815 60.919 25.5979 60.9623 26.4138 60.9886C27.3438 60.9741 28.2718 61.0782 29.1755 61.2984C29.8197 61.5057 30.4458 61.7656 31.0474 62.0755C31.9842 62.5306 32.8852 63.0609 33.8297 63.4982C34.5056 63.8284 35.2479 64 36.0001 64C36.7524 64 37.4947 63.8284 38.1706 63.4982C39.115 63.0609 40.0161 62.5306 40.9529 62.0755C41.5545 61.7656 42.1806 61.5057 42.8248 61.2984C43.7284 61.0782 44.6565 60.9741 45.5864 60.9886C46.4024 60.9623 47.2188 60.919 48.0321 60.8491C48.68 60.8129 49.3121 60.6352 49.884 60.3286C50.4559 60.0219 50.9537 59.5937 51.3424 59.074C51.9623 58.248 52.5342 57.3869 53.0552 56.4952C53.885 55.0574 55.0785 53.8633 56.5159 53.0327C57.4179 52.4991 58.2907 51.9174 59.1304 51.2902C59.825 50.7705 60.3398 50.0467 60.6028 49.2199C60.8621 48.3356 60.9956 47.4191 60.9994 46.4975C61.0332 45.7205 61.0415 44.9421 61.0866 44.1658C61.1344 43.2447 61.3739 42.3438 61.7898 41.5206C62.2632 40.5906 62.7685 39.677 63.2435 38.7478C63.6085 38.0627 63.8531 37.3201 63.9668 36.5523C64.0114 36.1854 64.0114 35.8146 63.9668 35.4477V35.4477Z" stroke="url(#paint2_linear)" stroke-width="3"/>
<path d="M31 26C30.0111 26 29.0444 26.2932 28.2221 26.8427C27.3999 27.3921 26.759 28.173 26.3806 29.0866C26.0022 30.0002 25.9032 31.0055 26.0961 31.9754C26.289 32.9454 26.7652 33.8363 27.4645 34.5355C28.1637 35.2348 29.0546 35.711 30.0246 35.9039C30.9945 36.0968 31.9998 35.9978 32.9134 35.6194C33.827 35.241 34.6079 34.6001 35.1573 33.7779C35.7068 32.9556 36 31.9889 36 31C36 29.6739 35.4732 28.4021 34.5355 27.4645C33.5979 26.5268 32.3261 26 31 26ZM31 34C30.4067 34 29.8266 33.8241 29.3333 33.4944C28.8399 33.1648 28.4554 32.6962 28.2284 32.148C28.0013 31.5999 27.9419 30.9967 28.0576 30.4147C28.1734 29.8328 28.4591 29.2982 28.8787 28.8787C29.2982 28.4591 29.8328 28.1734 30.4147 28.0576C30.9967 27.9419 31.5999 28.0013 32.148 28.2284C32.6962 28.4554 33.1648 28.8399 33.4944 29.3333C33.8241 29.8266 34 30.4067 34 31C34 31.7956 33.6839 32.5587 33.1213 33.1213C32.5587 33.6839 31.7956 34 31 34Z" fill="black"/>
<path d="M43.6006 26.9863L26.9883 43.5986C26.5978 43.9891 26.5978 44.6222 26.9883 45.0127L26.9883 45.0127C27.3788 45.4032 28.0119 45.4032 28.4023 45.0127L45.0146 28.4004C45.4051 28.0099 45.4051 27.3768 45.0146 26.9863C44.6241 26.5958 43.9911 26.5958 43.6006 26.9863Z" fill="black"/>
<path d="M41 36C40.0111 36 39.0444 36.2932 38.2221 36.8427C37.3999 37.3921 36.759 38.1729 36.3806 39.0866C36.0022 40.0002 35.9032 41.0055 36.0961 41.9754C36.289 42.9454 36.7652 43.8363 37.4645 44.5355C38.1637 45.2348 39.0546 45.711 40.0246 45.9039C40.9945 46.0968 41.9998 45.9978 42.9134 45.6194C43.827 45.241 44.6079 44.6001 45.1573 43.7778C45.7068 42.9556 46 41.9889 46 41C46 39.6739 45.4732 38.4021 44.5355 37.4645C43.5979 36.5268 42.3261 36 41 36ZM41 44C40.4067 44 39.8266 43.8241 39.3333 43.4944C38.8399 43.1648 38.4554 42.6962 38.2284 42.148C38.0013 41.5999 37.9419 40.9967 38.0576 40.4147C38.1734 39.8328 38.4591 39.2982 38.8787 38.8787C39.2982 38.4591 39.8328 38.1734 40.4147 38.0576C40.9967 37.9419 41.5999 38.0013 42.148 38.2284C42.6962 38.4554 43.1648 38.8399 43.4944 39.3333C43.8241 39.8266 44 40.4067 44 41C44 41.7956 43.6839 42.5587 43.1213 43.1213C42.5587 43.6839 41.7956 44 41 44V44Z" fill="black"/>
<circle cx="36" cy="36" r="17" stroke="black" stroke-width="2"/>
<defs>
<filter id="filter0_ii" x="2.5" y="2.5" width="66.0003" height="66" filterUnits="userSpaceOnUse" color-interpolation-filters="sRGB">
<feFlood flood-opacity="0" result="BackgroundImageFix"/>
<feBlend mode="normal" in="SourceGraphic" in2="BackgroundImageFix" result="shape"/>
<feColorMatrix in="SourceAlpha" type="matrix" values="0 0 0 0 0 0 0 0 0 0 0 0 0 0 0 0 0 0 127 0" result="hardAlpha"/>
<feOffset dx="4" dy="4"/>
<feGaussianBlur stdDeviation="1.5"/>
<feComposite in2="hardAlpha" operator="arithmetic" k2="-1" k3="1"/>
<feColorMatrix type="matrix" values="0 0 0 0 0 0 0 0 0 0 0 0 0 0 0 0 0 0 0.1 0"/>
<feBlend mode="normal" in2="shape" result="effect1_innerShadow"/>
<feColorMatrix in="SourceAlpha" type="matrix" values="0 0 0 0 0 0 0 0 0 0 0 0 0 0 0 0 0 0 127 0" result="hardAlpha"/>
<feOffset dx="-4" dy="-4"/>
<feGaussianBlur stdDeviation="2.5"/>
<feComposite in2="hardAlpha" operator="arithmetic" k2="-1" k3="1"/>
<feColorMatrix type="matrix" values="0 0 0 0 1 0 0 0 0 1 0 0 0 0 1 0 0 0 0.2 0"/>
<feBlend mode="normal" in2="effect1_innerShadow" result="effect2_innerShadow"/>
</filter>
<linearGradient id="paint0_linear" x1="0" y1="0" x2="72.0003" y2="72" gradientUnits="userSpaceOnUse">
<stop offset="0.158589" stop-color="white"/>
<stop offset="0.83981" stop-color="#E0E0E0"/>
</linearGradient>
<linearGradient id="paint1_linear" x1="8" y1="8" x2="64.0002" y2="64.0002" gradientUnits="userSpaceOnUse">
<stop stop-color="#FFB700"/>
<stop offset="1" stop-color="#FFCC33"/>
</linearGradient>
<linearGradient id="paint2_linear" x1="8" y1="8" x2="64.0002" y2="64.0002" gradientUnits="userSpaceOnUse">
<stop offset="0.154274" stop-color="#E0E0E0"/>
<stop offset="0.852768" stop-color="#FAFAFA"/>
</linearGradient>
</defs>
</svg>
