<svg width="56" height="56" viewBox="0 0 56 56" fill="none" xmlns="http://www.w3.org/2000/svg">
<rect width="56" height="56" rx="28" fill="url(#paint0_linear)"/>
<circle cx="28" cy="28" r="23" stroke="black" stroke-width="2"/>
<path d="M33.4037 40.8064C32.5983 41.0807 31.7297 41.1345 30.8896 40.956C30.6789 40.919 30.4776 40.8406 30.2975 40.7251C30.1174 40.6097 29.962 40.4596 29.8404 40.2836C29.7188 40.1075 29.6334 39.9091 29.5892 39.6998C29.545 39.4905 29.5428 39.2745 29.5828 39.0643L33.4037 40.8064ZM33.4037 40.8064C33.37 40.9652 33.3371 41.12 33.3044 41.2748L33.3044 41.2748C33.3005 41.2931 33.294 41.3207 33.2859 41.3553C33.2708 41.4197 33.25 41.508 33.2301 41.6045L33.4037 40.8064ZM28.5986 38.887C28.5357 39.2243 28.5398 39.5708 28.6108 39.9066C28.6824 40.2456 28.8208 40.5669 29.0177 40.852C29.2146 41.137 29.4662 41.3801 29.7579 41.567C30.0442 41.7505 30.3635 41.8764 30.698 41.9376C31.0849 42.0186 31.4767 42.059 31.8674 42.0595C31.311 42.2444 30.7613 42.422 30.1992 42.5834L30.1992 42.5834L30.1893 42.5863C29.3009 42.8515 28.3798 42.9907 27.4527 43L27.4434 43.0001L27.4341 43.0003C26.8401 43.0173 26.2501 42.8975 25.7097 42.6502C25.1701 42.4032 24.6944 42.0356 24.3192 41.5759C23.9454 41.1114 23.7196 40.5455 23.6709 39.9512L23.6703 39.9441C23.5923 39.0685 23.6789 38.1861 23.9257 37.3424L23.9293 37.3301L23.9326 37.3177C24.3383 35.7859 24.7307 34.2509 25.1218 32.721C25.1444 32.6324 25.1671 32.5438 25.1897 32.4552C25.503 31.23 25.8174 29.998 26.1164 28.7611C26.249 28.2346 26.3525 27.7013 26.4265 27.1635C26.4938 26.8142 26.4892 26.4548 26.4129 26.1072C26.3338 25.7469 26.1795 25.4074 25.96 25.111C25.7406 24.8145 25.461 24.5677 25.1395 24.3869C24.8298 24.2126 24.4881 24.1033 24.1351 24.0654C23.7576 24.0041 23.3772 23.9793 22.9991 23.9902C23.8826 23.6882 24.7849 23.4425 25.7005 23.2548L25.7175 23.2513L25.7344 23.2472C26.5555 23.049 27.4047 22.995 28.2443 23.0878C28.9311 23.1686 29.58 23.4458 30.1131 23.8863C30.6399 24.3215 31.0316 24.8978 31.2424 25.5474C31.4477 26.3697 31.4471 27.2301 31.2403 28.0523L31.2403 28.0523L31.2382 28.0609C30.9535 29.237 30.653 30.4057 30.3506 31.5823C30.2287 32.0561 30.1066 32.5312 29.985 33.0086L29.985 33.0086C29.891 33.3778 29.795 33.7498 29.6986 34.1235C29.4825 34.9611 29.264 35.8076 29.0602 36.6524C28.8819 37.3915 28.728 38.1364 28.5986 38.887Z" stroke="black" stroke-width="2"/>
<path d="M34.5012 16.1334C34.5012 17.864 33.0983 19.2668 31.3678 19.2668C29.6373 19.2668 28.2344 17.864 28.2344 16.1334C28.2344 14.4029 29.6373 13 31.3678 13C33.0983 13 34.5012 14.4029 34.5012 16.1334Z" stroke="black" stroke-width="2"/>
<defs>
<linearGradient id="paint0_linear" x1="0" y1="0" x2="56" y2="56" gradientUnits="userSpaceOnUse">
<stop stop-color="#F0F0F0"/>
<stop offset="1" stop-color="#F7F7F7"/>
</linearGradient>
</defs>
</svg>
