<svg width="31" height="30" viewBox="0 0 31 30" fill="none" xmlns="http://www.w3.org/2000/svg">
<path d="M10.5 17.2499H2.25C1.65326 17.2499 1.08097 17.487 0.659014 17.909C0.237057 18.3309 0 18.9032 0 19.4999V27.7499C0 28.3467 0.237057 28.919 0.659014 29.3409C1.08097 29.7629 1.65326 29.9999 2.25 29.9999H10.5C11.0967 29.9999 11.669 29.7629 12.091 29.3409C12.5129 28.919 12.75 28.3467 12.75 27.7499V19.4999C12.75 18.9032 12.5129 18.3309 12.091 17.909C11.669 17.487 11.0967 17.2499 10.5 17.2499ZM10.5 27.7499H2.25V19.4999H10.5V27.7499Z" fill="black"/>
<path d="M25.5 17.2499H17.25C16.6533 17.2499 16.081 17.487 15.659 17.909C15.2371 18.3309 15 18.9032 15 19.4999V27.7499C15 28.3467 15.2371 28.919 15.659 29.3409C16.081 29.7629 16.6533 29.9999 17.25 29.9999H25.5C26.0967 29.9999 26.669 29.7629 27.091 29.3409C27.5129 28.919 27.75 28.3467 27.75 27.7499V19.4999C27.75 18.9032 27.5129 18.3309 27.091 17.909C26.669 17.487 26.0967 17.2499 25.5 17.2499ZM25.5 27.7499H17.25V19.4999H25.5V27.7499Z" fill="black"/>
<path d="M10.5 2.25H2.25C1.65326 2.25 1.08097 2.48706 0.659014 2.90902C0.237057 3.33098 0 3.90326 0 4.5V12.75C0 13.3467 0.237057 13.919 0.659014 14.341C1.08097 14.763 1.65326 15 2.25 15H10.5C11.0967 15 11.669 14.763 12.091 14.341C12.5129 13.919 12.75 13.3467 12.75 12.75V4.5C12.75 3.90326 12.5129 3.33098 12.091 2.90902C11.669 2.48706 11.0967 2.25 10.5 2.25ZM10.5 12.75H2.25V4.5H10.5V12.75Z" fill="black"/>
<path d="M20.3266 0.659019L14.493 6.49251C14.2841 6.70143 14.1183 6.94947 14.0053 7.22246C13.8922 7.49544 13.834 7.78803 13.834 8.08351C13.834 8.37899 13.8922 8.67156 14.0053 8.94454C14.1183 9.21753 14.2841 9.46556 14.493 9.67449L20.3266 15.5081C20.7486 15.9301 21.3209 16.1671 21.9176 16.1671C22.5144 16.1671 23.0867 15.9301 23.5086 15.5081L29.3423 9.67449C29.7642 9.25253 30.0013 8.68025 30.0013 8.08351C30.0013 7.48677 29.7642 6.91446 29.3423 6.49251L23.5086 0.659019C23.0867 0.237063 22.5144 0 21.9176 0C21.3209 0 20.7486 0.237063 20.3266 0.659019ZM27.7513 8.08365L21.9176 13.9173L16.084 8.08365L21.9176 2.25L27.7513 8.08365Z" fill="#FFBB00"/>
</svg>
