<svg width="42" height="28" viewBox="0 0 42 28" fill="none" xmlns="http://www.w3.org/2000/svg">
<path d="M13.8157 4.97437H11.6594C11.62 4.97436 11.581 4.98211 11.5446 4.99719C11.5082 5.01226 11.4751 5.03436 11.4473 5.06222C11.4194 5.09007 11.3973 5.12315 11.3822 5.15955C11.3672 5.19595 11.3594 5.23496 11.3594 5.27437V12.0246L8.84303 4.97437H6.90803C6.82847 4.97437 6.75216 5.00597 6.6959 5.06223C6.63964 5.11849 6.60803 5.1948 6.60803 5.27437V18.7254C6.60803 18.805 6.63964 18.8813 6.6959 18.9375C6.75216 18.9938 6.82847 19.0254 6.90803 19.0254H9.06447C9.14404 19.0254 9.22034 18.9938 9.2766 18.9375C9.33286 18.8813 9.36447 18.805 9.36447 18.7254V12.6684L11.9409 19.0237L13.8154 19.0252C13.8548 19.0252 13.8939 19.0175 13.9303 19.0024C13.9667 18.9873 13.9998 18.9653 14.0277 18.9374C14.0556 18.9095 14.0777 18.8764 14.0928 18.84C14.1079 18.8036 14.1157 18.7646 14.1157 18.7252V5.27436C14.1157 5.19479 14.0841 5.11849 14.0278 5.06223C13.9716 5.00597 13.8953 4.97437 13.8157 4.97437Z" fill="#FFBC00"/>
<path d="M35.0914 4.97437H32.504C32.4298 4.97437 32.3582 5.00189 32.3031 5.0516C32.248 5.10132 32.2132 5.16971 32.2056 5.24354L31.3548 13.4714L30.4183 5.24044C30.4099 5.16723 30.3749 5.09966 30.3199 5.05061C30.265 5.00155 30.1939 4.97444 30.1202 4.97444H28.3494C28.2757 4.9744 28.2046 5.0015 28.1496 5.05057C28.0947 5.09963 28.0597 5.16722 28.0513 5.24044L27.1148 13.4714L26.264 5.24354C26.2563 5.16968 26.2216 5.1013 26.1664 5.05158C26.1113 5.00187 26.0397 4.97436 25.9654 4.97437H23.3785C23.3344 4.97437 23.2908 4.9841 23.2508 5.00286C23.2109 5.02163 23.1756 5.04897 23.1474 5.08293C23.1193 5.1169 23.099 5.15666 23.0879 5.19938C23.0769 5.2421 23.0754 5.28673 23.0836 5.33009L25.6266 18.7811C25.6395 18.8498 25.6761 18.9117 25.7299 18.9563C25.7837 19.0009 25.8514 19.0254 25.9212 19.0254H28.1349C28.2058 19.0253 28.2745 19.0001 28.3287 18.9543C28.3828 18.9084 28.419 18.8449 28.4308 18.7749L29.2348 13.9681L30.039 18.7749C30.0507 18.8449 30.0869 18.9084 30.141 18.9543C30.1952 19.0002 30.2639 19.0253 30.3349 19.0254H32.5487C32.6186 19.0253 32.6863 19.0009 32.7401 18.9563C32.7939 18.9117 32.8304 18.8497 32.8434 18.7811L35.3864 5.33009C35.3946 5.28672 35.3931 5.24209 35.382 5.19937C35.3709 5.15666 35.3506 5.1169 35.3224 5.08294C35.2943 5.04897 35.259 5.02164 35.219 5.00287C35.1791 4.98411 35.1355 4.97437 35.0914 4.97437Z" fill="#FFBC00"/>
<path d="M21.6213 4.97437H16.4683C16.4289 4.97436 16.3898 4.98211 16.3534 4.99719C16.317 5.01226 16.284 5.03436 16.2561 5.06222C16.2282 5.09007 16.2061 5.12315 16.1911 5.15955C16.176 5.19595 16.1682 5.23496 16.1682 5.27437V18.7254C16.1682 18.7648 16.176 18.8038 16.1911 18.8402C16.2061 18.8766 16.2282 18.9097 16.2561 18.9376C16.284 18.9654 16.317 18.9875 16.3534 19.0026C16.3898 19.0177 16.4289 19.0254 16.4683 19.0254H21.6213C21.7009 19.0254 21.7772 18.9938 21.8335 18.9375C21.8897 18.8813 21.9213 18.805 21.9213 18.7254V16.5558C21.9213 16.4762 21.8897 16.3999 21.8335 16.3437C21.7772 16.2874 21.7009 16.2558 21.6213 16.2558H18.9248V13.1211H21.2783C21.3579 13.1211 21.4342 13.0895 21.4905 13.0332C21.5467 12.977 21.5783 12.9007 21.5783 12.8211V10.6515C21.5783 10.5719 21.5467 10.4956 21.4905 10.4394C21.4342 10.3831 21.3579 10.3515 21.2783 10.3515H18.9248V7.74396H21.6213C21.7009 7.74396 21.7772 7.71235 21.8335 7.65609C21.8897 7.59983 21.9213 7.52352 21.9213 7.44396V5.27436C21.9213 5.19479 21.8897 5.11849 21.8335 5.06223C21.7772 5.00597 21.7009 4.97437 21.6213 4.97437Z" fill="#FFBC00"/>
<path d="M40 0H2C1.46957 1.32602e-05 0.960871 0.210731 0.585801 0.585801C0.210731 0.960871 1.32602e-05 1.46957 0 2V22C1.59121e-05 22.5304 0.210735 23.0391 0.585804 23.4142C0.960873 23.7893 1.46957 24 2 24H37.2778C37.5458 24 37.8111 24.0539 38.0578 24.1584C38.3046 24.2629 38.5279 24.4159 38.7144 24.6084L42 28V2C42 1.46957 41.7893 0.960873 41.4142 0.585804C41.0391 0.210735 40.5304 1.59121e-05 40 0V0ZM40.4995 24.2953L39.7915 23.5638C39.4644 23.2281 39.0736 22.9611 38.642 22.7784C38.2103 22.5957 37.7466 22.501 37.2778 22.4998H1.99951C1.86695 22.4997 1.73988 22.4469 1.64615 22.3532C1.55242 22.2595 1.49968 22.1324 1.49951 21.9998V1.99984C1.49968 1.86729 1.55242 1.74021 1.64615 1.64648C1.73988 1.55275 1.86696 1.50001 1.99951 1.49984H39.9995C40.1321 1.50001 40.2591 1.55275 40.3529 1.64648C40.4466 1.74021 40.4993 1.86729 40.4995 1.99984V24.2953Z" fill="#FFBC00"/>
</svg>
