<svg width="56" height="56" viewBox="0 0 56 56" fill="none" xmlns="http://www.w3.org/2000/svg">
<rect width="56" height="56" rx="28" fill="url(#paint0_linear)"/>
<g filter="url(#filter0_ii)">
<rect x="3" y="3" width="50" height="50" rx="25" fill="url(#paint1_linear)"/>
</g>
<path d="M23 18C22.0111 18 21.0444 18.2932 20.2221 18.8427C19.3999 19.3921 18.759 20.173 18.3806 21.0866C18.0022 22.0002 17.9032 23.0055 18.0961 23.9754C18.289 24.9454 18.7652 25.8363 19.4645 26.5355C20.1637 27.2348 21.0546 27.711 22.0246 27.9039C22.9945 28.0968 23.9998 27.9978 24.9134 27.6194C25.827 27.241 26.6079 26.6001 27.1573 25.7779C27.7068 24.9556 28 23.9889 28 23C28 21.6739 27.4732 20.4021 26.5355 19.4645C25.5979 18.5268 24.3261 18 23 18ZM23 26C22.4067 26 21.8266 25.8241 21.3333 25.4944C20.8399 25.1648 20.4554 24.6962 20.2284 24.148C20.0013 23.5999 19.9419 22.9967 20.0576 22.4147C20.1734 21.8328 20.4591 21.2982 20.8787 20.8787C21.2982 20.4591 21.8328 20.1734 22.4147 20.0576C22.9967 19.9419 23.5999 20.0013 24.148 20.2284C24.6962 20.4554 25.1648 20.8399 25.4944 21.3333C25.8241 21.8266 26 22.4067 26 23C26 23.7956 25.6839 24.5587 25.1213 25.1213C24.5587 25.6839 23.7957 26 23 26Z" fill="black"/>
<path d="M35.6006 18.9863L18.9883 35.5986C18.5978 35.9891 18.5978 36.6222 18.9883 37.0127L18.9883 37.0127C19.3788 37.4032 20.0119 37.4032 20.4023 37.0127L37.0146 20.4004C37.4051 20.0099 37.4051 19.3768 37.0146 18.9863C36.6241 18.5958 35.9911 18.5958 35.6006 18.9863Z" fill="black"/>
<path d="M33 28C32.0111 28 31.0444 28.2932 30.2221 28.8427C29.3999 29.3921 28.759 30.1729 28.3806 31.0866C28.0022 32.0002 27.9032 33.0055 28.0961 33.9754C28.289 34.9454 28.7652 35.8363 29.4645 36.5355C30.1637 37.2348 31.0546 37.711 32.0246 37.9039C32.9945 38.0968 33.9998 37.9978 34.9134 37.6194C35.827 37.241 36.6079 36.6001 37.1573 35.7778C37.7068 34.9556 38 33.9889 38 33C38 31.6739 37.4732 30.4021 36.5355 29.4645C35.5979 28.5268 34.3261 28 33 28ZM33 36C32.4067 36 31.8266 35.8241 31.3333 35.4944C30.8399 35.1648 30.4554 34.6962 30.2284 34.148C30.0013 33.5999 29.9419 32.9967 30.0576 32.4147C30.1734 31.8328 30.4591 31.2982 30.8787 30.8787C31.2982 30.4591 31.8328 30.1734 32.4147 30.0576C32.9967 29.9419 33.5999 30.0013 34.148 30.2284C34.6962 30.4554 35.1648 30.8399 35.4944 31.3333C35.8241 31.8266 36 32.4067 36 33C36 33.7956 35.6839 34.5587 35.1213 35.1213C34.5587 35.6839 33.7957 36 33 36Z" fill="black"/>
<circle cx="28" cy="28" r="17" stroke="black" stroke-width="2"/>
<defs>
<filter id="filter0_ii" x="-1" y="-1" width="57" height="57" filterUnits="userSpaceOnUse" color-interpolation-filters="sRGB">
<feFlood flood-opacity="0" result="BackgroundImageFix"/>
<feBlend mode="normal" in="SourceGraphic" in2="BackgroundImageFix" result="shape"/>
<feColorMatrix in="SourceAlpha" type="matrix" values="0 0 0 0 0 0 0 0 0 0 0 0 0 0 0 0 0 0 127 0" result="hardAlpha"/>
<feOffset dx="-4" dy="-4"/>
<feGaussianBlur stdDeviation="2.5"/>
<feComposite in2="hardAlpha" operator="arithmetic" k2="-1" k3="1"/>
<feColorMatrix type="matrix" values="0 0 0 0 1 0 0 0 0 1 0 0 0 0 1 0 0 0 0.2 0"/>
<feBlend mode="normal" in2="shape" result="effect1_innerShadow"/>
<feColorMatrix in="SourceAlpha" type="matrix" values="0 0 0 0 0 0 0 0 0 0 0 0 0 0 0 0 0 0 127 0" result="hardAlpha"/>
<feOffset dx="4" dy="4"/>
<feGaussianBlur stdDeviation="1.5"/>
<feComposite in2="hardAlpha" operator="arithmetic" k2="-1" k3="1"/>
<feColorMatrix type="matrix" values="0 0 0 0 0 0 0 0 0 0 0 0 0 0 0 0 0 0 0.05 0"/>
<feBlend mode="normal" in2="effect1_innerShadow" result="effect2_innerShadow"/>
</filter>
<linearGradient id="paint0_linear" x1="0" y1="0" x2="56" y2="56" gradientUnits="userSpaceOnUse">
<stop stop-color="#E0E0E0"/>
<stop offset="1" stop-color="#FAFAFA"/>
</linearGradient>
<linearGradient id="paint1_linear" x1="3" y1="3" x2="53" y2="53" gradientUnits="userSpaceOnUse">
<stop stop-color="#FFB700"/>
<stop offset="1" stop-color="#FFCC33"/>
</linearGradient>
</defs>
</svg>
