<svg width="56" height="56" viewBox="0 0 56 56" fill="none" xmlns="http://www.w3.org/2000/svg">
<rect width="56" height="56" rx="28" fill="url(#paint0_linear)"/>
<path d="M23.0794 9.97039C20.4234 10.8318 18.0152 12.3227 16.0602 14.3161C14.1051 16.3096 12.6612 18.7463 11.8516 21.4184C11.1182 23.7352 10.8545 26.175 11.076 28.595C11.2975 31.015 11.9996 33.3664 13.1414 35.5116C13.324 35.8444 13.3913 36.2283 13.3326 36.6034L11.537 43.0835C11.484 43.2749 11.4827 43.4769 11.5332 43.6689C11.5837 43.8609 11.6842 44.0361 11.8245 44.1766C11.9648 44.3171 12.1399 44.4179 12.3318 44.4686C12.5238 44.5194 12.7258 44.5183 12.9172 44.4656L19.4111 42.6754C19.7865 42.6171 20.1706 42.6845 20.5038 42.8669C22.6481 44.0054 24.9979 44.7051 27.4157 44.9249C29.8335 45.1448 32.271 44.8805 34.5855 44.1474C37.2566 43.3375 39.6923 41.8938 41.6849 39.9392C43.6775 37.9847 45.1679 35.5772 46.0291 32.9222C47.1219 29.7237 47.2961 26.2829 46.5319 22.9904C45.7678 19.6978 44.0958 16.6855 41.7058 14.2954C39.3159 11.9052 36.3037 10.233 33.0113 9.46846C29.7188 8.70397 26.278 8.87786 23.0794 9.97039ZM44.1262 32.3136C43.3697 34.6635 42.0533 36.7943 40.2906 38.5226C38.5278 40.2509 36.3714 41.5248 34.007 42.2348C31.9432 42.8866 29.7706 43.1226 27.615 42.929C25.4594 42.7354 23.3636 42.1161 21.4489 41.107C20.9014 40.8126 20.2896 40.658 19.668 40.6568C19.4747 40.6566 19.2817 40.6721 19.0909 40.7031L13.875 42.1289L15.2579 37.1369L15.3042 36.9262C15.4321 36.1165 15.2906 35.2872 14.9013 34.5658C13.8888 32.6504 13.267 30.5529 13.0718 28.3952C12.8766 26.2374 13.112 24.0624 13.7643 21.9964C14.474 19.6311 15.7482 17.4737 17.4771 15.7102C19.2059 13.9467 21.3375 12.6299 23.6884 11.8733C26.5374 10.8928 29.6047 10.7324 32.5405 11.4105C35.4763 12.0886 38.1625 13.5779 40.293 15.7086C42.4234 17.8393 43.9124 20.5257 44.5901 23.4616C45.2679 26.3975 45.1071 29.4647 44.1262 32.3137L44.1262 32.3136Z" fill="black"/>
<defs>
<linearGradient id="paint0_linear" x1="0" y1="0" x2="56" y2="56" gradientUnits="userSpaceOnUse">
<stop stop-color="#F0F0F0"/>
<stop offset="1" stop-color="#F7F7F7"/>
</linearGradient>
</defs>
</svg>
