<svg width="24" height="24" viewBox="0 0 24 24" fill="none" xmlns="http://www.w3.org/2000/svg">
<path d="M21.9995 0H2C1.46958 2.65193e-05 0.960882 0.210752 0.585815 0.585819C0.210748 0.960886 2.65193e-05 1.46958 0 2V21.9995C2.65193e-05 22.5299 0.210748 23.0386 0.585815 23.4137C0.960882 23.7888 1.46958 23.9995 2 23.9995H12.5897V14.5H9.99969V11H12.5496V9.63012C12.5496 6.17012 13.8197 3.54004 19.1887 3.54004H20.1887V7.13012C19.8591 7.06742 19.5242 7.03693 19.1887 7.03906C17.3087 7.03906 16.3887 7.71006 16.3887 9.44006V10.9991H20.1987V14.5311H16.4287V23.9996H21.9995C22.5299 23.9995 23.0386 23.7888 23.4137 23.4138C23.7888 23.0387 23.9995 22.53 23.9995 21.9996V2C23.9995 1.46958 23.7888 0.960886 23.4137 0.585819C23.0386 0.210752 22.5299 2.65193e-05 21.9995 0Z" fill="#808080"/>
</svg>
