<svg width="10" height="14" viewBox="0 0 10 14" fill="none" xmlns="http://www.w3.org/2000/svg">
<path d="M3.58582 3.47889V3.47876L1.50623 1.39941C1.49423 1.41088 1.47913 1.41919 1.46716 1.4309C1.00417 1.87981 0.635829 2.41695 0.3839 3.01059C0.131971 3.60423 0.0015601 4.24234 0.00037 4.88722H0C0.000524822 5.54698 0.111645 6.20198 0.32874 6.82499L3.58582 3.47889Z" fill="#EA4335"/>
<path d="M1.49292 1.40997L3.58574 3.47882L6.74292 0.321583C5.85462 -0.0130362 4.88953 -0.0883886 3.96006 0.104303C3.03058 0.296994 2.17499 0.749797 1.49292 1.40997Z" fill="#1A73E8"/>
<path d="M6.91406 0.372933L6.91106 0.374513L6.90991 0.371343C6.85669 0.349863 6.79736 0.341433 6.74312 0.321533L3.58594 3.47877C3.96094 3.10362 4.46961 2.89281 5.00005 2.89271C5.53049 2.8926 6.03924 3.10322 6.41439 3.47822C6.78954 3.85323 7.00035 4.3619 7.00045 4.89233C7.00056 5.42277 6.78994 5.93152 6.41494 6.30667L9.63769 3.084C9.62695 3.05787 9.62317 3.02858 9.61206 3.0027C9.09336 1.80555 8.1241 0.8608 6.91406 0.372933Z" fill="#4285F4"/>
<path d="M9.99951 4.88721C9.99691 4.26834 9.87394 3.65589 9.63745 3.08398L6.41445 6.30689L6.41384 6.30762L2.58545 10.1359C3.43203 11.2051 4.0994 12.4047 4.56153 13.6878C4.59311 13.7789 4.65231 13.858 4.73091 13.914C4.80951 13.9699 4.90359 14 5.00006 14C5.09654 14 5.19062 13.9699 5.26922 13.914C5.34782 13.858 5.40702 13.7789 5.4386 13.6878C6.14821 11.8477 7.20925 10.1634 8.5625 8.72878L8.5605 8.72866C9.49778 7.66961 10.0104 6.30142 9.99988 4.88721H9.99951Z" fill="#34A853"/>
<path d="M5.00012 6.89307C4.60454 6.89308 4.21784 6.77579 3.88893 6.55602C3.56001 6.33625 3.30366 6.02387 3.15228 5.6584C3.00091 5.29293 2.96131 4.89078 3.0385 4.5028C3.11569 4.11483 3.3062 3.75846 3.58594 3.47876L3.58154 3.48328L0.328857 6.82497C0.568703 7.5272 0.946429 8.17443 1.43986 8.72866L1.43778 8.72878C1.75346 9.09145 2.11369 9.51833 2.48026 9.99184C2.51542 10.0372 2.55058 10.0895 2.58573 10.1358L6.41373 6.30784C6.22824 6.49366 6.00788 6.64102 5.76529 6.74145C5.52271 6.84188 5.26267 6.89341 5.00012 6.89307Z" fill="#FBBC04"/>
</svg>
