<svg width="8" height="12" viewBox="0 0 8 12" fill="none" xmlns="http://www.w3.org/2000/svg">
<path d="M4.00002 0C3.26841 0.000312042 2.55087 0.201185 1.92544 0.58078C1.30001 0.960375 0.790613 1.50417 0.452628 2.15303C0.114643 2.80189 -0.0390027 3.531 0.00841452 4.26108C0.0558318 4.99115 0.302503 5.69425 0.72158 6.29395C2.00054 8.08278 3.09875 9.99417 4.00002 12C4.90138 9.99418 5.99962 8.0828 7.27859 6.29395C7.69762 5.69423 7.94421 4.99111 7.9916 4.26105C8.03899 3.53098 7.88532 2.8019 7.54732 2.15305C7.20933 1.5042 6.69997 0.960422 6.07455 0.580826C5.44913 0.201229 4.73163 0.000337361 4.00002 0ZM6.65823 5.87183C5.6919 7.2593 4.80443 8.70005 4.00002 10.1873C3.19415 8.69766 2.30505 7.25462 1.33694 5.86499C0.995966 5.37761 0.795267 4.80602 0.756736 4.21246C0.718205 3.61891 0.843303 3.02615 1.1184 2.49878C1.3935 1.97141 1.80805 1.52965 2.31689 1.22162C2.82572 0.91359 3.40934 0.751113 4.00414 0.751877C4.59895 0.75264 5.1821 0.916618 5.69015 1.22595C6.19819 1.53529 6.61166 1.97811 6.8854 2.50618C7.15914 3.03425 7.28269 3.62732 7.24264 4.22078C7.20258 4.81424 7.00045 5.38533 6.65823 5.87183Z"/>
<path d="M4.00001 1.49976C3.50556 1.49976 3.02219 1.64638 2.61106 1.92108C2.19994 2.19579 1.87951 2.58623 1.69029 3.04305C1.50107 3.49986 1.45158 4.00252 1.54804 4.48747C1.64451 4.97242 1.88259 5.41789 2.23222 5.76752C2.58185 6.11715 3.02732 6.35526 3.51228 6.45172C3.99723 6.54818 4.49992 6.49867 4.95673 6.30945C5.41355 6.12023 5.80398 5.79981 6.07868 5.38869C6.35339 4.97756 6.50001 4.49421 6.50001 3.99976C6.50001 3.33671 6.23661 2.70082 5.76777 2.23198C5.29893 1.76314 4.66305 1.49976 4.00001 1.49976ZM4.00001 5.74976C3.65389 5.74976 3.31554 5.64711 3.02775 5.45482C2.73996 5.26253 2.51567 4.98922 2.38322 4.66945C2.25076 4.34968 2.21612 3.99781 2.28364 3.65834C2.35116 3.31887 2.51781 3.00706 2.76255 2.76231C3.00729 2.51757 3.31911 2.35091 3.65858 2.28339C3.99804 2.21586 4.34992 2.25051 4.66969 2.38297C4.98946 2.51542 5.26279 2.73973 5.45509 3.02751C5.64738 3.3153 5.75001 3.65364 5.75001 3.99976C5.75002 4.22957 5.70477 4.45714 5.61683 4.66946C5.52889 4.88179 5.39994 5.07471 5.23744 5.23721C5.07493 5.39972 4.88201 5.52862 4.66969 5.61656C4.45736 5.7045 4.22982 5.74976 4.00001 5.74976Z"/>
</svg>
