<svg width="25" height="24" viewBox="0 0 25 24" fill="none" xmlns="http://www.w3.org/2000/svg">
<path d="M12.2773 9.81799V14.4539H18.8738C18.5205 15.9052 17.6264 17.1669 16.374 17.9814L20.3451 20.9492C21.7771 19.5107 22.839 17.7466 23.4396 15.8079C24.0402 13.8692 24.1617 11.8139 23.7936 9.81803H12.2773V9.81799Z" fill="#4285F4"/>
<path d="M5.37585 9.76387C5.84536 8.35303 6.747 7.12567 7.95306 6.25567C9.15913 5.38568 10.6085 4.91717 12.0957 4.91652C13.7978 4.8761 15.4601 5.43391 16.7931 6.4928L20.3641 3.00256C18.0464 0.997338 15.0641 -0.0718982 12 0.00375708C9.76402 0.00469271 7.57286 0.630764 5.67407 1.81124C3.77528 2.99171 2.24453 4.67954 1.25476 6.68405L5.37585 9.76387Z" fill="#EA4335"/>
<path d="M5.00964 12.0025C5.0105 11.242 5.13416 10.4866 5.37585 9.76549L1.25476 6.68567C0.429809 8.33615 0.000232663 10.1559 9.44833e-08 12.0009C-0.000232474 13.846 0.428883 15.6659 1.25342 17.3165L5.37268 14.2306C5.13304 13.5122 5.01046 12.7599 5.00964 12.0025Z" fill="#FBBC05"/>
<path d="M16.3732 17.9804C15.0848 18.7552 13.5986 19.1385 12.0961 19.0834C10.6072 19.0828 9.15642 18.6133 7.94958 17.7415C6.74275 16.8698 5.8413 15.6401 5.37317 14.2271L1.25391 17.313C2.11173 18.9773 3.33721 20.4245 4.83752 21.545C6.33784 22.6655 8.07362 23.4299 9.91327 23.7802C11.7529 24.1305 13.6482 24.0576 15.4554 23.5669C17.2627 23.0762 18.9345 22.1807 20.3442 20.9482L16.3732 17.9804Z" fill="#34A853"/>
</svg>
