<svg width="20" height="18" viewBox="0 0 20 18" fill="none" xmlns="http://www.w3.org/2000/svg">
<path d="M19.9999 5.84479C19.9993 4.71196 19.6632 3.60468 19.0339 2.66268C18.3969 1.70999 17.4981 0.961624 16.4459 0.507602C15.3845 0.0478821 14.2149 -0.102229 13.0719 0.074603C11.9329 0.24877 10.8672 0.744159 9.99978 1.50266C8.82854 0.481047 7.31146 -0.0548451 5.75841 0.00444306C4.20536 0.0637313 2.73354 0.713726 1.64361 1.82166C1.11237 2.36248 0.69363 3.00327 0.411612 3.70696C0.129593 4.41064 -0.0101237 5.16327 0.000570644 5.92128C0.011265 6.6793 0.17214 7.42766 0.473898 8.12311C0.775656 8.81856 1.21231 9.44728 1.7586 9.9729L1.75658 9.9749L9.99972 18.0002L18.2428 9.97493L18.2408 9.97293C18.7966 9.43497 19.2393 8.79136 19.5428 8.07993C19.8443 7.37332 19.9998 6.61304 19.9999 5.84479ZM9.99972 15.9221L2.82354 8.93691L2.82555 8.93491C2.36909 8.49052 2.01546 7.95155 1.78954 7.3559C1.56558 6.76309 1.47613 6.12792 1.52767 5.49631C1.57921 4.8647 1.77045 4.25243 2.08755 3.70377C2.40733 3.14989 2.84374 2.67219 3.36654 2.30377C3.89448 1.93132 4.49591 1.67593 5.13055 1.55472C5.76719 1.43192 6.42263 1.44556 7.05361 1.59473C7.68193 1.74186 8.27148 2.0218 8.78261 2.41573C9.28893 2.80558 9.70424 3.30107 9.99962 3.86772C10.2946 3.29994 10.7099 2.80338 11.2166 2.41266C11.9901 1.81892 12.9329 1.48758 13.9078 1.46689C14.8827 1.44621 15.8388 1.73726 16.6368 2.29766C17.1602 2.66677 17.5973 3.14515 17.9178 3.69971C18.2347 4.24903 18.4256 4.86193 18.4766 5.49407C18.5276 6.12621 18.4375 6.76179 18.2128 7.35483C17.986 7.95108 17.6313 8.49041 17.1738 8.93488L17.1758 8.93688L9.99972 15.9221Z"/>
</svg>
