<svg width="20" height="18" viewBox="0 0 20 18" fill="none" xmlns="http://www.w3.org/2000/svg">
<path d="M16.6347 2.29765C16.1063 1.92533 15.5046 1.66999 14.8698 1.54865C14.2341 1.42536 13.5795 1.43863 12.9493 1.58759C12.3192 1.73655 11.7279 2.01779 11.2148 2.41265C10.708 2.80333 10.2927 3.29991 9.99776 3.86772C9.70235 3.30108 9.28705 2.80559 8.78076 2.41572C8.26962 2.02179 7.68008 1.74185 7.05175 1.59472C6.42076 1.44556 5.76531 1.43193 5.12866 1.55472C4.49405 1.67591 3.89266 1.93128 3.36475 2.30372C2.84184 2.67205 2.40535 3.14977 2.08558 3.70371C1.76845 4.25236 1.5772 4.86462 1.52565 5.49622C1.4741 6.12783 1.56353 6.76299 1.78749 7.35581C2.0135 7.95144 2.36715 8.49039 2.82362 8.93481L2.82142 8.93681L9.99769 15.922L17.1737 8.93681L17.1717 8.93481C17.6293 8.49033 17.9839 7.95103 18.2107 7.35481C18.4354 6.76176 18.5255 6.1262 18.4746 5.49407C18.4236 4.86194 18.2327 4.24904 17.9159 3.69968C17.5953 3.1451 17.1582 2.66673 16.6347 2.29765Z" fill="#FFBB00"/>
<path d="M20 5.84479C19.9993 4.71195 19.6632 3.60468 19.034 2.66267C18.3969 1.70998 17.4982 0.961619 16.4459 0.507601C15.3846 0.0478815 14.2149 -0.102231 13.0719 0.0746006C11.9329 0.24876 10.8672 0.744155 9.99978 1.50266C8.82855 0.48105 7.31146 -0.0548452 5.75841 0.00444304C4.20536 0.0637312 2.73354 0.713729 1.6436 1.82166C1.11236 2.36249 0.69362 3.00327 0.4116 3.70696C0.129579 4.41064 -0.0101236 5.16326 0.000570696 5.92128C0.011265 6.6793 0.172145 7.42767 0.473904 8.12312C0.775664 8.81857 1.21231 9.44729 1.7586 9.97291L1.7566 9.97491L9.99978 18.0002L18.243 9.97493L18.241 9.97293C18.7967 9.43497 19.2394 8.79137 19.543 8.07993C19.8445 7.37332 19.9999 6.61303 20 5.84479ZM9.99978 15.9221L2.82361 8.9369L2.82561 8.9349C2.36914 8.49051 2.01553 7.95155 1.78961 7.3559C1.56565 6.76309 1.47621 6.12792 1.52774 5.49631C1.57928 4.8647 1.77051 4.25243 2.08761 3.70376C2.4074 3.14988 2.84382 2.67218 3.36661 2.30376C3.89457 1.93133 4.49598 1.67597 5.13061 1.55476C5.76725 1.43196 6.4227 1.44559 7.05368 1.59476C7.682 1.74191 8.27155 2.02187 8.78268 2.41581C9.289 2.80567 9.7043 3.30116 9.99968 3.86781C10.2947 3.30003 10.71 2.80345 11.2167 2.41274C11.9902 1.819 12.933 1.48767 13.9079 1.46698C14.8828 1.4463 15.8388 1.73734 16.6368 2.29774C17.1603 2.66686 17.5973 3.14523 17.9178 3.6998C18.2348 4.24912 18.4256 4.86202 18.4767 5.49416C18.5277 6.1263 18.4376 6.76188 18.2128 7.35492C17.9861 7.95115 17.6314 8.49046 17.1738 8.93492L17.1758 8.93692L9.99978 15.9221Z" fill="black"/>
</svg>
