<svg width="24" height="24" viewBox="0 0 24 24" fill="none" xmlns="http://www.w3.org/2000/svg">
<path d="M17 0H7C5.14348 0 3.36299 0.737496 2.05023 2.05025C0.737477 3.36301 0 5.14348 0 7V17C0 18.8565 0.737477 20.637 2.05023 21.9497C3.36299 23.2625 5.14348 24 7 24H17C18.8565 24 20.637 23.2625 21.9497 21.9497C23.2625 20.637 24 18.8565 24 17V7C24 5.14348 23.2625 3.36301 21.9497 2.05025C20.637 0.737496 18.8565 0 17 0ZM22.5 17C22.5 18.4587 21.9205 19.8576 20.8891 20.8891C19.8576 21.9205 18.4587 22.5 17 22.5H7C5.54131 22.5 4.14235 21.9205 3.1109 20.8891C2.07945 19.8576 1.5 18.4587 1.5 17V7C1.5 5.54131 2.07945 4.14236 3.1109 3.11091C4.14235 2.07946 5.54131 1.5 7 1.5H17C18.4587 1.5 19.8576 2.07946 20.8891 3.11091C21.9205 4.14236 22.5 5.54131 22.5 7V17Z" fill="#808080"/>
<path d="M12 5.5C10.7144 5.5 9.45773 5.88122 8.38881 6.59545C7.31989 7.30968 6.48677 8.32483 5.9948 9.51255C5.50283 10.7003 5.37409 12.0072 5.62489 13.2681C5.8757 14.529 6.49478 15.6872 7.40383 16.5962C8.31287 17.5052 9.47104 18.1243 10.7319 18.3751C11.9928 18.6259 13.2997 18.4972 14.4874 18.0052C15.6752 17.5132 16.6903 16.6801 17.4046 15.6112C18.1188 14.5423 18.5 13.2856 18.5 12C18.5 10.2761 17.8152 8.62279 16.5962 7.4038C15.3772 6.18482 13.7239 5.5 12 5.5ZM12 17C11.0111 17 10.0444 16.7068 9.22215 16.1573C8.39991 15.6079 7.75904 14.827 7.3806 13.9134C7.00216 12.9998 6.90316 11.9945 7.09609 11.0245C7.28901 10.0546 7.7652 9.16373 8.46446 8.46447C9.16373 7.7652 10.0546 7.289 11.0246 7.09607C11.9945 6.90315 12.9998 7.00217 13.9134 7.3806C14.827 7.75904 15.608 8.3999 16.1574 9.22215C16.7068 10.0444 17 11.0111 17 12C17 12.6566 16.8707 13.3068 16.6194 13.9134C16.3681 14.5201 15.9998 15.0713 15.5355 15.5356C15.0712 15.9999 14.52 16.3681 13.9134 16.6194C13.3068 16.8707 12.6566 17 12 17Z" fill="#808080"/>
<path d="M18.5 7C19.3284 7 20 6.32843 20 5.5C20 4.67157 19.3284 4 18.5 4C17.6716 4 17 4.67157 17 5.5C17 6.32843 17.6716 7 18.5 7Z" fill="#808080"/>
</svg>
