<svg width="192" height="58" viewBox="0 0 192 58" fill="none" xmlns="http://www.w3.org/2000/svg">
<path d="M6.96 55.208H7.86V57.608H7.02V56H1.02V57.608H0.18V55.208H0.864C1.416 54.56 1.692 53.56 1.692 52.208V47.6H6.96V55.208ZM1.86 55.208H6.12V48.392H2.532V52.232C2.532 53.56 2.308 54.552 1.86 55.208ZM14.6452 56V49.16L9.96516 56H9.24516V47.6H10.0852V54.44L14.7652 47.6H15.4852V56H14.6452ZM22.6814 47.6V48.392H20.1014V56H19.2614V48.392H16.6814V47.6H22.6814ZM28.9214 47.6V56H28.0814V52.64H26.0654L23.7614 56H22.8014L25.1414 52.604C24.5414 52.5 24.0414 52.216 23.6414 51.752C23.2414 51.28 23.0414 50.736 23.0414 50.12C23.0414 49.424 23.2854 48.832 23.7734 48.344C24.2694 47.848 24.8654 47.6 25.5614 47.6H28.9214ZM25.5614 51.848H28.0814V48.392H25.5614C25.0974 48.392 24.7014 48.56 24.3734 48.896C24.0454 49.232 23.8814 49.64 23.8814 50.12C23.8814 50.592 24.0454 51 24.3734 51.344C24.7014 51.68 25.0974 51.848 25.5614 51.848ZM35.5828 47.6H36.4228V56H35.5828V52.46C34.8548 52.82 34.0948 53 33.3028 53C32.5028 53 31.8628 52.776 31.3828 52.328C30.9028 51.88 30.6628 51.304 30.6628 50.6V47.6H31.5028V50.6C31.5028 51.088 31.6588 51.48 31.9708 51.776C32.2908 52.064 32.7348 52.208 33.3028 52.208C34.0948 52.208 34.8548 52.028 35.5828 51.668V47.6ZM38.3428 47.6H39.1828V56H38.3428V47.6ZM51.7884 47.6V56H50.9484V48.872L48.0084 53.792H47.8884L44.9484 48.872V56H44.1084V47.6H45.1524L47.9484 52.28L50.7444 47.6H51.7884ZM54.5461 55.208H58.6261V56H53.7061V47.6H58.5661V48.392H54.5461V51.368H58.2661V52.16H54.5461V55.208ZM63.1894 50.96C63.8854 50.96 64.4774 51.208 64.9654 51.704C65.4614 52.2 65.7094 52.792 65.7094 53.48C65.7094 54.176 65.4614 54.772 64.9654 55.268C64.4774 55.756 63.8854 56 63.1894 56H60.0694V47.6H64.9894V48.392H60.9094V50.96H63.1894ZM63.1894 55.208C63.6534 55.208 64.0494 55.04 64.3774 54.704C64.7054 54.368 64.8694 53.96 64.8694 53.48C64.8694 53.008 64.7054 52.604 64.3774 52.268C64.0494 51.924 63.6534 51.752 63.1894 51.752H60.9094V55.208H63.1894ZM66.0745 56V55.256C66.6585 55.336 67.0945 55.156 67.3825 54.716C67.6785 54.268 67.8265 53.452 67.8265 52.268V47.6H73.2745V56H72.4345V48.392H68.6665V52.292C68.6665 53.052 68.6065 53.688 68.4865 54.2C68.3665 54.712 68.1865 55.104 67.9465 55.376C67.7145 55.64 67.4465 55.82 67.1425 55.916C66.8465 56.004 66.4905 56.032 66.0745 56ZM75.1983 47.6H76.0383V56H75.1983V47.6ZM79.1639 54.98L78.4439 57.68H77.7239L78.2039 54.98H79.1639ZM93.3267 55.208H94.2267V57.608H93.3867V56H83.8467V47.6H84.6867V55.208H88.1667V47.6H89.0067V55.208H92.4867V47.6H93.3267V55.208ZM102.443 54.884C101.603 55.724 100.575 56.144 99.3592 56.144C98.1432 56.144 97.1152 55.724 96.2752 54.884C95.4352 54.036 95.0152 53.008 95.0152 51.8C95.0152 50.592 95.4352 49.568 96.2752 48.728C97.1152 47.88 98.1432 47.456 99.3592 47.456C100.575 47.456 101.603 47.88 102.443 48.728C103.283 49.568 103.703 50.592 103.703 51.8C103.703 53.008 103.283 54.036 102.443 54.884ZM96.8632 54.308C97.5352 54.988 98.3672 55.328 99.3592 55.328C100.351 55.328 101.183 54.988 101.855 54.308C102.527 53.62 102.863 52.784 102.863 51.8C102.863 50.816 102.527 49.984 101.855 49.304C101.183 48.616 100.351 48.272 99.3592 48.272C98.3672 48.272 97.5352 48.616 96.8632 49.304C96.1912 49.984 95.8552 50.816 95.8552 51.8C95.8552 52.784 96.1912 53.62 96.8632 54.308ZM112.016 51.656C112.48 51.832 112.84 52.1 113.096 52.46C113.352 52.82 113.48 53.244 113.48 53.732C113.48 54.436 113.216 55.016 112.688 55.472C112.168 55.92 111.464 56.144 110.576 56.144C109.776 56.144 109.136 55.964 108.656 55.604C108.176 55.244 107.844 54.792 107.66 54.248L108.38 53.84C108.484 54.264 108.708 54.624 109.052 54.92C109.404 55.208 109.912 55.352 110.576 55.352C111.232 55.352 111.74 55.204 112.1 54.908C112.46 54.604 112.64 54.212 112.64 53.732C112.64 53.252 112.472 52.864 112.136 52.568C111.808 52.264 111.352 52.112 110.768 52.112H109.808V51.32H110.468C111.036 51.32 111.488 51.176 111.824 50.888C112.16 50.6 112.328 50.228 112.328 49.772C112.328 49.324 112.164 48.96 111.836 48.68C111.516 48.392 111.076 48.248 110.516 48.248C109.484 48.248 108.804 48.688 108.476 49.568L107.78 49.16C107.988 48.648 108.316 48.236 108.764 47.924C109.22 47.612 109.804 47.456 110.516 47.456C111.308 47.456 111.948 47.68 112.436 48.128C112.924 48.568 113.168 49.12 113.168 49.784C113.168 50.624 112.784 51.248 112.016 51.656ZM117.925 47.6C118.677 47.6 119.305 47.852 119.809 48.356C120.313 48.86 120.565 49.488 120.565 50.24C120.565 50.992 120.313 51.62 119.809 52.124C119.305 52.628 118.677 52.88 117.925 52.88H115.765V56H114.925V47.6H117.925ZM117.925 52.088C118.445 52.088 118.873 51.916 119.209 51.572C119.553 51.22 119.725 50.776 119.725 50.24C119.725 49.704 119.553 49.264 119.209 48.92C118.873 48.568 118.445 48.392 117.925 48.392H115.765V52.088H117.925ZM128.892 54.884C128.052 55.724 127.024 56.144 125.808 56.144C124.592 56.144 123.564 55.724 122.724 54.884C121.884 54.036 121.464 53.008 121.464 51.8C121.464 50.592 121.884 49.568 122.724 48.728C123.564 47.88 124.592 47.456 125.808 47.456C127.024 47.456 128.052 47.88 128.892 48.728C129.732 49.568 130.152 50.592 130.152 51.8C130.152 53.008 129.732 54.036 128.892 54.884ZM123.312 54.308C123.984 54.988 124.816 55.328 125.808 55.328C126.8 55.328 127.632 54.988 128.304 54.308C128.976 53.62 129.312 52.784 129.312 51.8C129.312 50.816 128.976 49.984 128.304 49.304C127.632 48.616 126.8 48.272 125.808 48.272C124.816 48.272 123.984 48.616 123.312 49.304C122.64 49.984 122.304 50.816 122.304 51.8C122.304 52.784 122.64 53.62 123.312 54.308ZM135.513 56.144C134.241 56.144 133.189 55.724 132.357 54.884C131.525 54.044 131.109 53.016 131.109 51.8C131.109 50.584 131.525 49.556 132.357 48.716C133.189 47.876 134.241 47.456 135.513 47.456C136.289 47.456 137.001 47.644 137.649 48.02C138.297 48.388 138.797 48.888 139.149 49.52L138.405 49.952C138.141 49.44 137.749 49.032 137.229 48.728C136.709 48.424 136.137 48.272 135.513 48.272C134.465 48.272 133.609 48.612 132.945 49.292C132.281 49.972 131.949 50.808 131.949 51.8C131.949 52.792 132.281 53.628 132.945 54.308C133.609 54.988 134.465 55.328 135.513 55.328C136.137 55.328 136.709 55.176 137.229 54.872C137.749 54.568 138.141 54.16 138.405 53.648L139.149 54.068C138.805 54.7 138.305 55.204 137.649 55.58C137.001 55.956 136.289 56.144 135.513 56.144ZM145.693 47.6V48.392H143.113V56H142.273V48.392H139.693V47.6H145.693ZM151.888 56L151.108 53.936H147.124L146.344 56H145.456L148.684 47.6H149.548L152.776 56H151.888ZM147.424 53.144H150.808L149.116 48.644L147.424 53.144ZM160.551 47.456C161.767 47.456 162.795 47.88 163.635 48.728C164.475 49.568 164.895 50.592 164.895 51.8C164.895 53.008 164.475 54.036 163.635 54.884C162.795 55.724 161.767 56.144 160.551 56.144C159.383 56.144 158.391 55.752 157.575 54.968C156.767 54.184 156.331 53.22 156.267 52.076H154.695V56H153.855V47.6H154.695V51.284H156.279C156.407 50.188 156.871 49.276 157.671 48.548C158.471 47.82 159.431 47.456 160.551 47.456ZM158.055 54.308C158.727 54.988 159.559 55.328 160.551 55.328C161.543 55.328 162.375 54.988 163.047 54.308C163.719 53.62 164.055 52.784 164.055 51.8C164.055 50.816 163.719 49.984 163.047 49.304C162.375 48.616 161.543 48.272 160.551 48.272C159.559 48.272 158.727 48.616 158.055 49.304C157.383 49.984 157.047 50.816 157.047 51.8C157.047 52.784 157.383 53.62 158.055 54.308ZM171.135 47.6V48.392H168.555V56H167.715V48.392H165.135V47.6H171.135ZM175.335 50.72C176.087 50.72 176.715 50.972 177.219 51.476C177.723 51.98 177.975 52.608 177.975 53.36C177.975 54.112 177.723 54.74 177.219 55.244C176.715 55.748 176.087 56 175.335 56H172.335V47.6H173.175V50.72H175.335ZM175.335 55.208C175.855 55.208 176.283 55.036 176.619 54.692C176.963 54.34 177.135 53.896 177.135 53.36C177.135 52.824 176.963 52.384 176.619 52.04C176.283 51.688 175.855 51.512 175.335 51.512H173.175V55.208H175.335Z" fill="black"/>
<path d="M76.9613 16.5167L75.1646 18.0992L76.9943 19.7805C77.0923 19.8627 77.1701 19.9665 77.2215 20.0837C77.273 20.2009 77.2967 20.3283 77.2909 20.4562V27.3793C77.2698 27.6475 77.1528 27.8991 76.9613 28.0881L73.335 31.3024C73.2597 31.3714 73.1712 31.4245 73.0749 31.4585C72.9786 31.4925 72.8764 31.5066 72.7745 31.5001H54.0328C53.7407 31.4841 53.4648 31.3608 53.258 31.154C53.0512 30.9472 52.9279 30.6713 52.9118 30.3792V5.60456C52.9088 5.45945 52.9367 5.31536 52.9935 5.18181C53.0504 5.04826 53.1349 4.92829 53.2416 4.82984C53.3452 4.72544 53.4684 4.64257 53.6042 4.58599C53.74 4.52941 53.8857 4.50024 54.0328 4.50017H72.7745C72.8764 4.49369 72.9786 4.50787 73.0749 4.54186C73.1713 4.57584 73.2597 4.62894 73.335 4.69796L76.9613 7.89577C77.1528 8.08476 77.2698 8.33638 77.2909 8.60458V15.8079C77.2868 15.9422 77.2555 16.0743 77.1988 16.1961C77.1422 16.3179 77.0614 16.427 76.9613 16.5167ZM70.9448 14.3243V11.2419L70.4668 10.8793H59.291V15.2969H69.5603L70.9448 14.3243ZM70.9448 24.7418V21.8408L69.5273 20.8023H59.291V25.121H70.4668L70.9448 24.7418ZM106.879 30.2143C106.882 30.3874 106.848 30.559 106.78 30.7181C106.711 30.8772 106.61 31.0201 106.483 31.1375C106.213 31.3818 105.858 31.5118 105.494 31.5001H100.961C100.781 31.5141 100.601 31.4726 100.445 31.3813C100.288 31.29 100.164 31.1531 100.088 30.9891L95.6371 22.7309H88.4668V30.3464C88.4668 30.4935 88.4376 30.6391 88.381 30.7749C88.3244 30.9107 88.2415 31.0339 88.1371 31.1376C88.0387 31.2442 87.9187 31.3287 87.7851 31.3856C87.6516 31.4424 87.5075 31.4703 87.3624 31.4673H83.2086C82.9165 31.4512 82.6406 31.328 82.4338 31.1211C82.227 30.9143 82.1037 30.6384 82.0877 30.3464V5.60456C82.0847 5.45945 82.1125 5.31536 82.1693 5.18181C82.2262 5.04826 82.3107 4.9283 82.4174 4.82984C82.521 4.72542 82.6442 4.64253 82.78 4.58595C82.9158 4.52937 83.0615 4.50022 83.2086 4.50017H101.571C101.679 4.49075 101.787 4.50672 101.887 4.5468C101.987 4.58689 102.077 4.64996 102.148 4.73093L105.791 7.97819C105.891 8.06236 105.972 8.16542 106.032 8.28143C106.091 8.39743 106.127 8.52407 106.137 8.65402V15.8737C106.144 15.9826 106.125 16.0915 106.082 16.1917C106.039 16.292 105.973 16.3807 105.89 16.4507L102.082 20.9012L106.698 29.5387C106.81 29.7468 106.872 29.9781 106.879 30.2144V30.2143ZM88.4668 10.9122V16.2694H97.8294L99.758 13.9452V11.2749L99.28 10.9122H88.4668ZM135.626 30.2474C135.627 30.4138 135.594 30.5786 135.529 30.7317C135.463 30.8848 135.368 31.0229 135.247 31.1375C135.127 31.255 134.986 31.3475 134.83 31.4098C134.674 31.472 134.508 31.5028 134.34 31.5001H130.318C130.112 31.5009 129.91 31.4375 129.741 31.3188C129.574 31.2084 129.447 31.0464 129.379 30.8573L127.318 25.3847C127.147 25.4975 126.947 25.5603 126.741 25.566H117.758L115.945 30.8242C115.867 31.0234 115.731 31.1945 115.555 31.3151C115.378 31.4357 115.17 31.5002 114.956 31.5001H110.884C110.72 31.5041 110.557 31.4756 110.405 31.4162C110.252 31.3568 110.112 31.2677 109.994 31.154C109.877 31.0408 109.785 30.905 109.722 30.7547C109.66 30.6044 109.629 30.443 109.632 30.2803C109.63 30.1349 109.653 29.9901 109.698 29.8518L118.335 5.14303C118.402 4.9395 118.537 4.76496 118.717 4.64812C118.896 4.53129 119.111 4.47911 119.324 4.50017H125.06C125.265 4.49356 125.466 4.55232 125.635 4.66791C125.804 4.78351 125.932 4.94993 126 5.14303L135.527 29.7529C135.592 29.9099 135.625 30.0778 135.626 30.2474ZM119.917 19.2859H124.994L122.588 12.9397H122.11L119.917 19.2859ZM139.285 30.3792V5.60456C139.282 5.45947 139.31 5.31539 139.367 5.18185C139.424 5.0483 139.508 4.92833 139.615 4.82984C139.719 4.72544 139.842 4.64257 139.978 4.58599C140.113 4.52941 140.259 4.50025 140.406 4.50017H143.785C143.92 4.50427 144.052 4.53561 144.174 4.59228C144.295 4.64895 144.405 4.72977 144.494 4.82984L156.873 18.7419V5.60456C156.87 5.45941 156.898 5.31532 156.955 5.18179C157.012 5.04826 157.097 4.92831 157.203 4.82984C157.307 4.72543 157.43 4.64255 157.566 4.58596C157.701 4.52938 157.847 4.50022 157.994 4.50017H162.148C162.294 4.49552 162.44 4.52089 162.576 4.57473C162.712 4.62857 162.836 4.70973 162.939 4.81321C163.043 4.91669 163.124 5.04029 163.178 5.1764C163.232 5.3125 163.258 5.45822 163.253 5.60456V30.3792C163.253 30.5264 163.223 30.672 163.167 30.8078C163.11 30.9436 163.027 31.0668 162.922 31.1704C162.824 31.2772 162.704 31.3618 162.57 31.4186C162.437 31.4754 162.293 31.5032 162.147 31.5001H159.412C159.275 31.5096 159.139 31.4844 159.015 31.4267C158.891 31.3691 158.783 31.2809 158.703 31.1704L145.631 16.1375V30.3792C145.631 30.5263 145.602 30.6719 145.546 30.8077C145.489 30.9434 145.406 31.0667 145.302 31.1704C145.204 31.277 145.084 31.3615 144.95 31.4184C144.816 31.4752 144.672 31.5031 144.527 31.5001H140.406C140.114 31.484 139.838 31.3607 139.632 31.1539C139.425 30.9471 139.302 30.6712 139.285 30.3792V30.3792ZM168.033 30.3792V5.60456C168.03 5.4595 168.057 5.31546 168.114 5.18192C168.171 5.04838 168.255 4.92839 168.362 4.82984C168.466 4.72541 168.589 4.64252 168.725 4.58594C168.861 4.52936 169.007 4.50021 169.154 4.50017H187.417C187.521 4.49266 187.626 4.5063 187.725 4.54029C187.825 4.57427 187.916 4.6279 187.994 4.69796L191.637 7.89577C191.737 7.98545 191.818 8.0945 191.875 8.21633C191.931 8.33815 191.963 8.47023 191.967 8.60458L192 27.3792C191.998 27.5188 191.968 27.6565 191.912 27.7841C191.855 27.9116 191.773 28.0263 191.67 28.1211L187.994 31.3024C187.916 31.3724 187.825 31.426 187.725 31.46C187.626 31.494 187.521 31.5077 187.417 31.5001H169.154C168.862 31.4842 168.586 31.3609 168.379 31.1541C168.172 30.9473 168.049 30.6713 168.033 30.3792ZM174.412 25.121H185.126L185.587 24.7419V11.2089L185.126 10.8792H174.412V25.121Z" fill="black"/>
<path d="M36 0.0108079V10.6999H35.1668C28.2498 10.6999 21.3328 10.6999 14.4158 10.6997C13.9108 10.6329 13.3972 10.6835 12.9149 10.8474C12.4326 11.0113 11.9946 11.2842 11.6349 11.6449C11.2752 12.0056 11.0034 12.4443 10.8408 12.9271C10.6782 13.4098 10.629 13.9236 10.6972 14.4284C10.6986 20.8815 10.6986 27.3346 10.6973 33.7876V34.6872C10.9754 34.7024 11.2022 34.7025 11.4257 34.7294C11.8935 34.7856 12.0646 34.6145 12.1054 34.1179C12.5207 28.8617 14.6578 23.8892 18.1857 19.9708C21.7135 16.0524 26.4351 13.4068 31.619 12.4438C33.0323 12.1768 34.5047 12.1134 36 11.952V22.7086C32.4815 22.7416 29.1158 24.1513 26.6241 26.6357C24.1324 29.1201 22.7129 32.4816 22.6696 36H0.00675221V35.232C0.00675221 31.4541 0.0182722 27.6761 0.00159221 23.8982C-0.0171945 23.0998 0.130447 22.3064 0.435116 21.5682C0.739785 20.8301 1.19481 20.1635 1.77122 19.6108C7.69349 13.6997 13.6047 7.7776 19.5048 1.84436C20.0792 1.24112 20.774 0.765392 21.5442 0.448058C22.3143 0.130724 23.1426 -0.0211256 23.9752 0.00236288C27.7031 0.0308628 31.4315 0.0108829 35.1596 0.0107629L36 0.0108079Z" fill="url(#paint0_linear)"/>
<defs>
<linearGradient id="paint0_linear" x1="18" y1="3.78795e-05" x2="18" y2="36" gradientUnits="userSpaceOnUse">
<stop stop-color="#FFCC33"/>
<stop offset="1" stop-color="#FFB700"/>
</linearGradient>
</defs>
</svg>
