<svg width="18" height="12" viewBox="0 0 18 12" fill="none" xmlns="http://www.w3.org/2000/svg">
<path d="M16.5 0H1.5C1.10218 0 0.720644 0.158035 0.43934 0.43934C0.158035 0.720644 0 1.10218 0 1.5L0 10.5C0 10.8978 0.158035 11.2794 0.43934 11.5607C0.720644 11.842 1.10218 12 1.5 12H16.5C16.8978 12 17.2794 11.842 17.5607 11.5607C17.842 11.2794 18 10.8978 18 10.5V1.5C18 1.10218 17.842 0.720644 17.5607 0.43934C17.2794 0.158035 16.8978 0 16.5 0V0ZM1.49951 0.74982H16.6417L16.6538 0.781L9.50654 7.32674C9.36825 7.45339 9.18752 7.52364 9 7.52364C8.81248 7.52364 8.63175 7.45339 8.49346 7.32674L1.45032 0.87637L1.49951 0.74982ZM0.87866 10.8947C0.798135 10.7784 0.753254 10.6412 0.74951 10.4998V1.49982C0.75332 1.4281 0.76772 1.35733 0.79224 1.28982L6.66968 6.67261L0.87866 10.8947ZM9 11.2498H1.66479L7.23413 7.18945L7.98693 7.87887C8.26351 8.13217 8.62495 8.27267 9 8.27267C9.37505 8.27267 9.73649 8.13217 10.0131 7.87887L10.7659 7.18945L16.3352 11.2498H9ZM17.2505 10.4998C17.2467 10.6412 17.2019 10.7784 17.1213 10.8947L11.3303 6.67265L17.2078 1.28983C17.2323 1.35734 17.2467 1.42811 17.2505 1.49983L17.2505 10.4998Z" fill="#1D1D1B"/>
</svg>
