<svg width="12" height="12" viewBox="0 0 12 12" fill="none" xmlns="http://www.w3.org/2000/svg">
<path d="M6 12C7.18669 12 8.34674 11.6481 9.33344 10.9888C10.3201 10.3295 11.0891 9.39245 11.5433 8.29609C11.9974 7.19974 12.1162 5.99335 11.8847 4.82946C11.6532 3.66558 11.0817 2.59648 10.2426 1.75737C9.4035 0.918251 8.33442 0.346803 7.17053 0.115292C6.00665 -0.116219 4.80021 0.00259688 3.70386 0.456723C2.6075 0.910848 1.67046 1.67988 1.01117 2.66658C0.351881 3.65327 6.753e-10 4.81331 6.753e-10 6C-1.18186e-05 6.78793 0.155141 7.56815 0.456665 8.29611C0.758189 9.02407 1.20017 9.68552 1.75732 10.2427C2.31448 10.7998 2.9759 11.2418 3.70386 11.5433C4.43182 11.8448 5.21207 12 6 12Z" fill="#FFBB00"/>
<path d="M6.5 5.50101V2.875H5.5V5.50101L2.875 5.5V6.5L5.5 6.50101V9.125H6.5V6.50101H9.125V5.50101H6.5Z" fill="black"/>
</svg>
