<svg width="20" height="20" viewBox="0 0 20 20" fill="none" xmlns="http://www.w3.org/2000/svg">
<path d="M7 11.5H1.5C1.10218 11.5 0.720647 11.658 0.439342 11.9393C0.158038 12.2207 0 12.6022 0 13V18.5C0 18.8978 0.158038 19.2794 0.439342 19.5607C0.720647 19.842 1.10218 20 1.5 20H7C7.39783 20 7.77935 19.842 8.06066 19.5607C8.34196 19.2794 8.5 18.8978 8.5 18.5V13C8.5 12.6022 8.34196 12.2207 8.06066 11.9393C7.77935 11.658 7.39783 11.5 7 11.5ZM7 18.5H1.5V13H7V18.5Z" fill="black"/>
<path d="M17 11.5H11.5C11.1022 11.5 10.7206 11.658 10.4393 11.9393C10.158 12.2207 10 12.6022 10 13V18.5C10 18.8978 10.158 19.2794 10.4393 19.5607C10.7206 19.842 11.1022 20 11.5 20H17C17.3978 20 17.7793 19.842 18.0607 19.5607C18.342 19.2794 18.5 18.8978 18.5 18.5V13C18.5 12.6022 18.342 12.2207 18.0607 11.9393C17.7793 11.658 17.3978 11.5 17 11.5ZM17 18.5H11.5V13H17V18.5Z" fill="black"/>
<path d="M7 1.5H1.5C1.10218 1.5 0.720647 1.65804 0.439342 1.93935C0.158038 2.22065 0 2.60218 0 3V8.5C0 8.89782 0.158038 9.27936 0.439342 9.56067C0.720647 9.84197 1.10218 10 1.5 10H7C7.39783 10 7.77935 9.84197 8.06066 9.56067C8.34196 9.27936 8.5 8.89782 8.5 8.5V3C8.5 2.60218 8.34196 2.22065 8.06066 1.93935C7.77935 1.65804 7.39783 1.5 7 1.5ZM7 8.5H1.5V3H7V8.5Z" fill="black"/>
<path d="M13.5501 0.439346L9.66104 4.32834C9.52175 4.46762 9.41125 4.63298 9.33587 4.81497C9.26048 4.99696 9.22168 5.19202 9.22168 5.38901C9.22168 5.58599 9.26048 5.78104 9.33587 5.96303C9.41125 6.14502 9.52175 6.31038 9.66104 6.44966L13.5501 10.3388C13.8314 10.6201 14.213 10.7781 14.6108 10.7781C15.0086 10.7781 15.3901 10.6201 15.6714 10.3388L19.5605 6.44966C19.8418 6.16836 19.9999 5.78683 19.9999 5.38901C19.9999 4.99118 19.8418 4.60964 19.5605 4.32834L15.6714 0.439346C15.3901 0.158042 15.0086 0 14.6108 0C14.213 0 13.8314 0.158042 13.5501 0.439346ZM18.4999 5.3891L14.6108 9.27818L10.7217 5.3891L14.6108 1.5L18.4999 5.3891Z" fill="#FFBB00"/>
</svg>
