<svg width="20" height="20" viewBox="0 0 20 20" fill="none" xmlns="http://www.w3.org/2000/svg">
<path d="M19.1128 2.84673L17.167 0.893852C16.8847 0.610546 16.5493 0.385752 16.1799 0.232364C15.8106 0.0789765 15.4146 1.20791e-05 15.0147 1.38569e-09C14.6147 -1.20763e-05 14.2187 0.0789284 13.8494 0.232294C13.48 0.38566 13.1446 0.610433 12.8623 0.893722L2.10208 11.6913C2.00228 11.7914 1.93041 11.9159 1.89359 12.0523L0.0278702 18.9787C-0.00906235 19.1158 -0.00929255 19.2602 0.0272027 19.3974C0.063698 19.5347 0.135636 19.6599 0.2358 19.7606C0.335965 19.8612 0.460835 19.9338 0.597885 19.9709C0.734936 20.0081 0.879349 20.0085 1.01664 19.9723L8.00709 18.1244C8.1459 18.0878 8.27246 18.0149 8.37379 17.9132L19.1128 7.137C19.6804 6.56741 19.9992 5.79603 19.9992 4.99187C19.9992 4.1877 19.6804 3.41632 19.1128 2.84673ZM3.00613 13.6899L6.33205 17.0157L1.78666 18.2172L3.00613 13.6899ZM7.80055 16.363L3.67483 12.2377L12.2102 3.67339L16.3356 7.79851L7.80055 16.363ZM18.0503 6.078L17.3945 6.73614L13.269 2.61107L13.9253 1.9525C14.2185 1.67144 14.609 1.51452 15.0151 1.51452C15.4213 1.51452 15.8117 1.67144 16.105 1.9525L18.0503 3.90514C18.3369 4.19406 18.4978 4.58457 18.4978 4.99157C18.4978 5.39857 18.3369 5.78908 18.0503 6.078Z" fill="#404040"/>
<path d="M12.2104 6.74939L7.22607 11.7343L8.28668 12.7947L13.271 7.80988L12.2104 6.74939Z" fill="#404040"/>
</svg>
