<svg width="28" height="28" viewBox="0 0 28 28" fill="none" xmlns="http://www.w3.org/2000/svg">
<path d="M27 12.5H15.5V1C15.5 0.734784 15.3946 0.48043 15.2071 0.292893C15.0196 0.105357 14.7652 0 14.5 0L13.5 0C13.2348 1.32596e-05 12.9804 0.105374 12.7929 0.292908C12.6054 0.480441 12.5 0.734788 12.5 1V12.5H1C0.734788 12.5 0.480441 12.6054 0.292908 12.7929C0.105374 12.9804 1.32596e-05 13.2348 0 13.5V14.5C0 14.7652 0.105357 15.0196 0.292893 15.2071C0.48043 15.3946 0.734783 15.5 1 15.5H12.5V27C12.5 27.2652 12.6054 27.5196 12.7929 27.7071C12.9804 27.8946 13.2348 28 13.5 28H14.5C14.7652 28 15.0196 27.8946 15.2071 27.7071C15.3946 27.5196 15.5 27.2652 15.5 27V15.5H27C27.2652 15.5 27.5196 15.3946 27.7071 15.2071C27.8946 15.0196 28 14.7652 28 14.5V13.5C28 13.2348 27.8946 12.9804 27.7071 12.7929C27.5196 12.6054 27.2652 12.5 27 12.5Z" fill="#1D1D1B"/>
</svg>
