<svg width="22" height="24" viewBox="0 0 22 24" fill="none" xmlns="http://www.w3.org/2000/svg">
<path d="M6.01172 2.95674L9.28973 5.27286L7.97577 1.5014L6.01172 2.95674Z" fill="#FFBB00"/>
<path d="M12.7109 5.27286L15.988 2.95674L14.0239 1.5014L12.7109 5.27286Z" fill="#FFBB00"/>
<path d="M20.5 6.31992H13.8271L16.8522 4.18282C17.0461 4.04585 17.2047 3.86477 17.3151 3.65447C17.4255 3.44417 17.4845 3.21064 17.4871 2.9731C17.4898 2.73556 17.4361 2.50078 17.3304 2.28805C17.2248 2.07533 17.0703 1.89072 16.8795 1.74943L14.9153 0.29449C14.7263 0.154509 14.507 0.0609543 14.2753 0.021381C14.0435 -0.0181923 13.8057 -0.00268235 13.581 0.066665C13.3563 0.136012 13.1511 0.257248 12.9818 0.420598C12.8126 0.583948 12.684 0.784832 12.6066 1.00704L11 5.6192L9.39331 1.00704C9.3159 0.784835 9.18738 0.583962 9.01813 0.420613C8.84888 0.257264 8.64362 0.136013 8.41895 0.066665C8.19427 -0.00268267 7.9565 -0.0181914 7.72473 0.021381C7.49296 0.0609534 7.27372 0.154511 7.08472 0.29449L5.12048 1.74943C4.9297 1.89073 4.77513 2.07534 4.66949 2.28807C4.56386 2.5008 4.51021 2.73558 4.51288 2.97312C4.51555 3.21066 4.57449 3.44417 4.68488 3.65447C4.79526 3.86477 4.95391 4.04585 5.14783 4.18282L8.17291 6.31992H1.5C1.10218 6.31992 0.720636 6.4781 0.439331 6.75967C0.158026 7.04123 0 7.42311 0 7.8213V11.825C0 12.2232 0.158026 12.605 0.439331 12.8866C0.720636 13.1682 1.10218 13.3264 1.5 13.3264H2V22.4986C2 22.8968 2.15803 23.2787 2.43933 23.5603C2.72064 23.8418 3.10218 24 3.5 24H18.5C18.8978 24 19.2794 23.8418 19.5607 23.5603C19.842 23.2787 20 22.8968 20 22.4986V13.3264H20.5C20.8978 13.3264 21.2794 13.1682 21.5607 12.8866C21.842 12.605 22 12.2232 22 11.825V7.8213C22 7.42311 21.842 7.04123 21.5607 6.75967C21.2794 6.4781 20.8978 6.31992 20.5 6.31992ZM14.0229 1.5014L15.9872 2.95684L12.7094 5.27246L14.0229 1.5014ZM6.01276 2.95684L7.97711 1.5014L9.29059 5.27246L6.01276 2.95684ZM9.12506 22.4983H3.50006V13.3267H9.12506V22.4983ZM9.12506 11.8253H1.50006V7.82166H9.12506V11.8253ZM11.3751 22.4983H10.6251V13.3267H11.3751V22.4983ZM11.3751 11.8253H10.6251V7.82166H11.3751V11.8253ZM18.5001 22.4983H12.8751V13.3267H18.5001V22.4983ZM20.5001 11.8253H12.8751V7.82166H20.5001V11.8253Z" fill="black"/>
</svg>
