<svg width="20" height="20" viewBox="0 0 20 20" fill="none" xmlns="http://www.w3.org/2000/svg">
<path d="M5 0C4.01109 0 3.04439 0.293244 2.22215 0.842651C1.3999 1.39206 0.759039 2.17296 0.3806 3.08659C0.00216216 4.00022 -0.0968488 5.00554 0.0960773 5.97545C0.289003 6.94535 0.7652 7.83628 1.46446 8.53554C2.16373 9.2348 3.05465 9.711 4.02455 9.90392C4.99446 10.0968 5.99978 9.99784 6.91341 9.6194C7.82704 9.24096 8.60794 8.6001 9.15735 7.77785C9.70676 6.95561 10 5.98891 10 5C10 3.67392 9.47322 2.40214 8.53554 1.46446C7.59786 0.52678 6.32608 0 5 0ZM5 8C4.40666 8 3.82664 7.82405 3.33329 7.49441C2.83994 7.16476 2.45543 6.69623 2.22836 6.14805C2.0013 5.59987 1.94189 4.99667 2.05765 4.41473C2.1734 3.83278 2.45912 3.29823 2.87868 2.87868C3.29824 2.45912 3.83278 2.1734 4.41473 2.05765C4.99667 1.94189 5.59987 2.0013 6.14805 2.22836C6.69623 2.45543 7.16476 2.83994 7.49441 3.33329C7.82405 3.82664 8 4.40666 8 5C8 5.79565 7.68393 6.55871 7.12132 7.12132C6.55871 7.68393 5.79565 8 5 8Z" fill="black"/>
<path d="M17.6006 0.986316L0.988275 17.5986C0.597794 17.9891 0.5978 18.6222 0.988282 19.0127L0.988287 19.0127C1.37877 19.4032 2.01186 19.4032 2.40234 19.0127L19.0146 2.40038C19.4051 2.0099 19.4051 1.37681 19.0146 0.986321C18.6241 0.59584 17.9911 0.595835 17.6006 0.986316Z" fill="black"/>
<path d="M15 10C14.0111 10 13.0444 10.2932 12.2221 10.8427C11.3999 11.3921 10.759 12.1729 10.3806 13.0866C10.0022 14.0002 9.90315 15.0055 10.0961 15.9754C10.289 16.9454 10.7652 17.8363 11.4645 18.5355C12.1637 19.2348 13.0546 19.711 14.0246 19.9039C14.9945 20.0968 15.9998 19.9978 16.9134 19.6194C17.827 19.241 18.6079 18.6001 19.1573 17.7778C19.7068 16.9556 20 15.9889 20 15C20 13.6739 19.4732 12.4021 18.5355 11.4645C17.5979 10.5268 16.3261 10 15 10ZM15 18C14.4067 18 13.8266 17.8241 13.3333 17.4944C12.8399 17.1648 12.4554 16.6962 12.2284 16.148C12.0013 15.5999 11.9419 14.9967 12.0576 14.4147C12.1734 13.8328 12.4591 13.2982 12.8787 12.8787C13.2982 12.4591 13.8328 12.1734 14.4147 12.0576C14.9967 11.9419 15.5999 12.0013 16.148 12.2284C16.6962 12.4554 17.1648 12.8399 17.4944 13.3333C17.8241 13.8266 18 14.4067 18 15C18 15.7956 17.6839 16.5587 17.1213 17.1213C16.5587 17.6839 15.7957 18 15 18Z" fill="black"/>
</svg>
