<svg width="16" height="19" viewBox="0 0 16 19" fill="none" xmlns="http://www.w3.org/2000/svg">
<path d="M12.4339 4.37389C12.4336 3.50849 12.173 2.66321 11.6859 1.9479C11.1955 1.22759 10.5032 0.668183 9.69595 0.339894C8.88398 0.00945696 7.9932 -0.076737 7.13295 0.0918932C6.27498 0.258443 5.48509 0.674072 4.86195 1.28689C4.24308 1.89191 3.82041 2.66903 3.64886 3.51734C3.47731 4.36564 3.56479 5.24594 3.89994 6.04389C4.23812 6.84485 4.80691 7.52712 5.53395 8.0039C6.14335 8.40271 6.84041 8.64772 7.56532 8.71792C8.29023 8.78811 9.02135 8.68138 9.69595 8.4069C10.2327 8.18843 10.7216 7.86706 11.1349 7.4609C11.5457 7.05661 11.8723 6.57502 12.0959 6.04389C12.3188 5.51533 12.4338 4.94753 12.4339 4.37389ZM7.99795 7.2389C7.42333 7.23937 6.86117 7.07145 6.38095 6.75589C5.90352 6.44328 5.52999 5.99558 5.30795 5.46988C5.08795 4.94734 5.03011 4.37072 5.14195 3.81489C5.25564 3.25715 5.53314 2.74602 5.93894 2.34688C6.34823 1.94488 6.86677 1.67222 7.42994 1.56289C7.99484 1.45201 8.57982 1.50867 9.11294 1.7259C9.64271 1.94121 10.0971 2.30823 10.4189 2.78089C10.7933 3.33043 10.9622 3.9943 10.8958 4.65593C10.8294 5.31757 10.532 5.93467 10.0559 6.39888C9.50653 6.93776 8.76752 7.2394 7.99795 7.23888V7.2389Z"/>
<path d="M12.404 9.89284C11.7081 9.66207 10.9527 9.6876 10.274 9.96483C9.54761 10.24 8.77675 10.379 8 10.3748C7.23429 10.3757 6.47508 10.2343 5.761 9.95783C5.08518 9.68064 4.33298 9.65195 3.638 9.87684C2.5784 10.243 1.65777 10.9276 1.002 11.8368C0.351372 12.7396 0.000865769 13.824 0 14.9368V16.5078C0.000344067 16.7053 0.0399475 16.9007 0.116516 17.0826C0.193085 17.2646 0.305088 17.4295 0.445999 17.5678C0.733648 17.8503 1.12084 18.0084 1.524 18.0078H14.476C14.8792 18.0084 15.2664 17.8503 15.554 17.5678C15.6949 17.4295 15.8069 17.2646 15.8835 17.0826C15.96 16.9007 15.9997 16.7053 16 16.5078V14.9368C15.9996 13.8318 15.6538 12.7546 15.011 11.8558C14.3635 10.95 13.4535 10.2648 12.404 9.89284ZM14.476 16.5078H1.524V14.9368C1.52574 14.1471 1.77163 13.3773 2.228 12.7328C2.68812 12.0836 3.3352 11.59 4.08299 11.3178C4.44911 11.1958 4.84705 11.2108 5.203 11.3598C7.0027 12.047 8.99254 12.0466 10.792 11.3588C11.1472 11.2099 11.5444 11.1947 11.91 11.3158C12.6593 11.5871 13.3082 12.0804 13.7701 12.7298C14.2279 13.3748 14.4746 14.1459 14.476 14.9368L14.476 16.5078Z"/>
</svg>
