<svg width="18" height="18" viewBox="0 0 18 18" fill="none" xmlns="http://www.w3.org/2000/svg">
<path d="M17.7804 16.7202L13.3077 12.2475C14.5256 10.7577 15.1243 8.85672 14.9799 6.93785C14.8355 5.01899 13.9592 3.229 12.5322 1.93812C11.1051 0.647229 9.23649 -0.045807 7.31281 0.00235176C5.38912 0.0505106 3.55753 0.836175 2.19685 2.19685C0.836175 3.55753 0.0505106 5.38912 0.00235176 7.31281C-0.045807 9.23649 0.647229 11.1051 1.93812 12.5322C3.229 13.9592 5.01899 14.8356 6.93785 14.9799C8.85672 15.1243 10.7577 14.5256 12.2475 13.3077L16.7202 17.7804C16.8608 17.921 17.0515 18 17.2503 18C17.4491 18 17.6398 17.921 17.7804 17.7804C17.921 17.6398 18 17.4491 18 17.2503C18 17.0515 17.921 16.8608 17.7804 16.7202ZM1.50538 7.50345C1.50538 6.31714 1.85716 5.15748 2.51624 4.1711C3.17531 3.18472 4.11209 2.41594 5.20809 1.96196C6.3041 1.50798 7.51009 1.3892 8.67361 1.62064C9.83712 1.85207 10.9059 2.42334 11.7447 3.26218C12.5836 4.10103 13.1548 5.16978 13.3863 6.33329C13.6177 7.49681 13.4989 8.70282 13.0449 9.79883C12.591 10.8948 11.8222 11.8316 10.8358 12.4907C9.84942 13.1497 8.68976 13.5015 7.50345 13.5015C5.91267 13.5015 4.38704 12.8696 3.26218 11.7447C2.13733 10.6199 1.50539 9.09423 1.50538 7.50345Z"/>
</svg>
