<svg width="10" height="10" viewBox="0 0 10 10" fill="none" xmlns="http://www.w3.org/2000/svg">
<path d="M7.65554 6.01605L9.77825 4.36542C9.8717 4.29293 9.94019 4.19308 9.97414 4.07979C10.0081 3.9665 10.0058 3.84542 9.96764 3.73349C9.92946 3.62156 9.85727 3.52435 9.76116 3.45543C9.66505 3.38651 9.54981 3.34932 9.43154 3.34906C8.49694 3.3487 7.40521 3.34822 6.83764 3.34761C6.72445 3.34703 6.61446 3.31005 6.52392 3.24213C6.43337 3.17421 6.36706 3.07895 6.33483 2.97044L5.54601 0.39801C5.51078 0.282817 5.43951 0.181972 5.34267 0.110321C5.24584 0.0386703 5.12857 6.71881e-06 5.00811 8.75445e-10C4.88765 -6.71706e-06 4.77036 0.0386506 4.67351 0.110291C4.57667 0.18193 4.50539 0.28276 4.47015 0.397949L3.68655 2.95244C3.65134 3.06737 3.58021 3.16797 3.48357 3.23946C3.38694 3.31095 3.26991 3.34955 3.14971 3.34959H0.567558C0.448954 3.34974 0.33336 3.38699 0.236991 3.45613C0.140623 3.52527 0.0683095 3.62283 0.0301737 3.73514C-0.00796209 3.84744 -0.00999745 3.96886 0.0243449 4.08238C0.0586872 4.19591 0.127679 4.29584 0.221672 4.36818L2.36025 6.01396C2.45231 6.08486 2.52054 6.18216 2.55581 6.29286C2.59108 6.40357 2.59172 6.52241 2.55764 6.63348L1.75289 9.25763C1.71752 9.37249 1.71961 9.49562 1.75884 9.60922C1.79808 9.72283 1.87243 9.82101 1.97115 9.88956C2.06987 9.95811 2.18785 9.99348 2.30801 9.99055C2.42816 9.98763 2.54425 9.94655 2.63952 9.87328L4.665 8.31299C4.76279 8.23764 4.88276 8.19676 5.00622 8.19673C5.12967 8.1967 5.24967 8.23753 5.3475 8.31284L7.38454 9.88052C7.47933 9.95337 7.59483 9.99418 7.71435 9.99706C7.83386 9.99993 7.95119 9.96471 8.04937 9.8965C8.14755 9.82829 8.22151 9.73062 8.26052 9.61761C8.29953 9.50461 8.30157 9.38213 8.26638 9.26788L7.45943 6.63701C7.42532 6.52583 7.42582 6.4069 7.46084 6.29601C7.49586 6.18511 7.56376 6.08748 7.65554 6.01605Z" fill="#FFBB00"/>
</svg>
