<svg width="12" height="12" viewBox="0 0 12 12" fill="none" xmlns="http://www.w3.org/2000/svg">
<path d="M11.9711 9.29986C11.9092 9.04364 11.7732 8.81132 11.5801 8.63186C11.0791 8.13186 10.5771 7.63353 10.0741 7.13687C9.93524 6.98839 9.76124 6.8773 9.56811 6.81385C9.37498 6.75041 9.16896 6.73666 8.96911 6.77388C8.7045 6.82781 8.46287 6.96186 8.27709 7.15786C8.00309 7.42786 7.7318 7.7012 7.46313 7.97787C7.45665 7.98698 7.44846 7.99478 7.43908 8.00087C7.43001 8.00688 7.41983 8.01097 7.40911 8.01287C7.39845 8.01404 7.3877 8.0137 7.37713 8.01187C7.36652 8.00948 7.35655 8.0047 7.34808 7.99787C6.83136 7.73279 6.35218 7.4002 5.92309 7.00886C5.76013 6.86486 5.60182 6.71654 5.44811 6.56387L5.44213 6.55787L5.43609 6.55188C5.28313 6.39788 5.13516 6.23954 4.99212 6.07687C4.60014 5.64807 4.26721 5.16883 4.00213 4.65187C3.99535 4.64341 3.99052 4.63353 3.98809 4.62297C3.98567 4.6124 3.98567 4.60143 3.98809 4.59086C3.98917 4.58009 3.99294 4.56978 3.99908 4.56086C4.00513 4.55147 4.01292 4.54332 4.02203 4.53686C4.29803 4.26886 4.57137 3.99753 4.84204 3.72287C5.03805 3.53709 5.17215 3.29548 5.22607 3.03086C5.26325 2.83101 5.24947 2.62502 5.18603 2.4319C5.12259 2.23877 5.01149 2.06474 4.86303 1.92587C4.36804 1.42088 3.86971 0.918879 3.36804 0.419872C3.18858 0.226785 2.95629 0.0907927 2.70007 0.0288655C2.49244 -0.0167761 2.27652 -0.00817296 2.07318 0.0538289C1.86983 0.115831 1.6859 0.229146 1.53906 0.382869C1.20806 0.702869 0.888058 1.03487 0.565058 1.36387C0.552058 1.37687 0.539057 1.38987 0.526057 1.40387C0.251831 1.69391 0.0761379 2.06313 0.0240427 2.45887C-0.0229499 2.84468 -0.000937976 3.23577 0.0890451 3.61387C0.213164 4.20184 0.412097 4.77147 0.681025 5.30886C1.95071 7.93159 4.06827 10.0492 6.69097 11.3189C7.22837 11.5878 7.79801 11.7867 8.38598 11.9109C8.76409 12.0008 9.15514 12.0228 9.54095 11.9759C9.9367 11.9238 10.3059 11.7481 10.5959 11.4739L10.637 11.4339C10.965 11.1119 11.2969 10.7919 11.6169 10.4609C11.7707 10.314 11.884 10.1301 11.946 9.92672C12.008 9.72338 12.0166 9.50749 11.9709 9.29986H11.9711ZM11.0781 9.93986C10.8191 10.2079 10.5521 10.4679 10.2861 10.7279L10.0731 10.9369C9.89325 11.103 9.6653 11.2076 9.42211 11.2359C9.12245 11.2678 8.81948 11.2469 8.52709 11.1739C8.00186 11.0628 7.49328 10.8839 7.01409 10.6419C4.5473 9.4454 2.555 7.45346 1.35809 4.98687C1.11604 4.50733 0.937229 3.99841 0.826106 3.47287C0.753896 3.18035 0.733279 2.87747 0.765132 2.57786C0.798287 2.31749 0.916385 2.07532 1.10113 1.88887L1.3001 1.68586C1.5511 1.42886 1.80209 1.17187 2.06109 0.921871C2.1068 0.870116 2.16261 0.828257 2.22509 0.79887C2.28763 0.768822 2.35576 0.752138 2.4251 0.749874C2.46584 0.749972 2.5064 0.754661 2.54608 0.763866C2.65904 0.796892 2.76007 0.861821 2.83703 0.950863L2.89703 1.01088C3.37503 1.48888 3.85175 1.96886 4.32708 2.45086C4.39168 2.50394 4.44063 2.57355 4.46881 2.65226C4.49698 2.73098 4.5033 2.81586 4.48706 2.89787C4.45909 3.01286 4.39707 3.11673 4.30908 3.19587C4.04108 3.46587 3.77071 3.73387 3.49804 3.99987C3.36705 4.12298 3.27962 4.28533 3.24896 4.46246C3.21829 4.63959 3.24607 4.82189 3.32806 4.98187C3.6219 5.55872 3.99185 6.09349 4.42803 6.57186C4.58203 6.74686 4.74004 6.91687 4.86004 7.03187L4.91906 7.09587C5.08306 7.25987 5.25303 7.41786 5.42803 7.57186C5.90606 8.00848 6.44093 8.3785 7.01806 8.67187C7.17823 8.75411 7.36082 8.78189 7.5382 8.75103C7.71558 8.72018 7.87805 8.63236 8.00103 8.50087C8.26605 8.22786 8.53339 7.9582 8.80303 7.69187C8.8821 7.60359 8.98599 7.54121 9.10107 7.51287C9.18323 7.49651 9.26827 7.50275 9.34716 7.53093C9.42606 7.5591 9.49586 7.60815 9.54907 7.67286C10.0521 8.16686 10.5521 8.66354 11.0491 9.16287C11.1381 9.23987 11.203 9.3409 11.2361 9.45387C11.2578 9.54138 11.2543 9.63324 11.2261 9.71887C11.1981 9.80477 11.1469 9.88124 11.0781 9.93986Z"/>
</svg>
