<svg id="Layer_1" data-name="Layer 1" xmlns="http://www.w3.org/2000/svg" viewBox="0 0 8.8159 11.744">
  <path d="M7.32787,5.296h1.488v-1.184H8a3.56569,3.56569,0,0,0,.12793-.96A2.82233,2.82233,0,0,0,7.136.816,3.98478,3.98478,0,0,0,4.49584,0,8.0379,8.0379,0,0,0,2.57592.22406a9.73543,9.73543,0,0,0-1.728.576l.72,1.888a13.88872,13.88872,0,0,1,1.43994-.496,5.00856,5.00856,0,0,1,1.29614-.176,1.71057,1.71057,0,0,1,1.072.288.94424.94424,0,0,1,.38378.8,1.30564,1.30564,0,0,1-.41577,1.008H0V5.296H2.97582a6.07569,6.07569,0,0,0-.896.528,3.938,3.938,0,0,0-.688.624H0V7.632H.78393a3.10978,3.10978,0,0,0-.11206.864,3.04475,3.04475,0,0,0,.96,2.384,4.306,4.306,0,0,0,2.928.864A9.14775,9.14775,0,0,0,6.48,11.552a6.87807,6.87807,0,0,0,1.584-.528V9.008a12.62068,12.62068,0,0,1-1.66406.544,7.51133,7.51133,0,0,1-1.696.192,2.03493,2.03493,0,0,1-1.24805-.32A1.128,1.128,0,0,1,3.04,8.496a1.28057,1.28057,0,0,1,.30371-.864H8.8159v-1.184H5.5039q.51306-.22358.99194-.48A3.17115,3.17115,0,0,0,7.32787,5.296Z"/>
</svg>
