<svg id="Layer_1" data-name="Layer 1" xmlns="http://www.w3.org/2000/svg" viewBox="0 0 11.1092 15.414">
  <path d="M6.74125,7.833q.77675-.294,1.491-.63A4.10972,4.10972,0,0,0,9.28228,6.51H11.1092v-1.344h-1.155a2.51169,2.51169,0,0,0,.231-.756,6.23076,6.23076,0,0,0,.063-.882,3.00173,3.00173,0,0,0-1.239-2.646A5.59375,5.59375,0,0,0,5.6702-.0001a10.53077,10.53077,0,0,0-2.24708.252,9.14782,9.14782,0,0,0-1.9529.63l.52491,1.659a11.88191,11.88191,0,0,1,1.617-.609,6.85855,6.85855,0,0,1,1.95314-.273,3.21707,3.21707,0,0,1,2.09987.567,1.86426,1.86426,0,0,1,.67212,1.533,3.17,3.17,0,0,1-.084.798,2.01976,2.01976,0,0,1-.23121.609H0V6.51H6.46806q-.16809.084-.75587.294-.58813.189-1.365.462a13.65573,13.65573,0,0,0-1.47023.63,4.071,4.071,0,0,0-1.1128.756H0V9.996H.98707a4.30821,4.30821,0,0,0-.231,1.449,3.48049,3.48049,0,0,0,1.323,2.982,6.23363,6.23363,0,0,0,3.78006.987,11.01449,11.01449,0,0,0,2.457-.273,9.64108,9.64108,0,0,0,1.9109-.609V12.831a13.88112,13.88112,0,0,1-1.8899.651,9.00461,9.00461,0,0,1-2.31007.294q-3.38126,0-3.38113-2.436a3.53269,3.53269,0,0,1,.063-.756,2.42165,2.42165,0,0,1,.2312-.588h8.169V8.652h-6.594A5.965,5.965,0,0,1,5.334,8.337Q5.96428,8.127,6.74125,7.833Z"/>
</svg>
