<svg width="12" height="12" viewBox="0 0 12 12" fill="none" xmlns="http://www.w3.org/2000/svg">
<path d="M7.09321 8.73488H7.07628C5.86889 8.47931 4.75895 7.88596 3.87576 7.02394C3.01085 6.14443 2.41521 5.03614 2.15896 3.82952C2.1568 3.43917 2.28911 3.05998 2.53366 2.75572C2.7782 2.45146 3.12006 2.24068 3.50174 2.15885C3.52464 2.15393 3.54798 2.15142 3.5714 2.15137H4.11111C4.17351 2.15139 4.23465 2.16892 4.28759 2.20194C4.34052 2.23497 4.38314 2.28218 4.41059 2.33822C4.41092 2.33887 4.73221 2.99546 4.9464 3.40661C5.19933 3.89161 4.76964 4.44537 4.49848 4.72661C4.65154 5.10686 4.87633 5.45412 5.16059 5.74944C5.45572 6.02976 5.80179 6.25098 6.18011 6.40116C6.46136 6.13162 7.01703 5.70257 7.5027 5.95416C7.91514 6.16739 8.57464 6.48803 8.57464 6.48803C8.63086 6.51539 8.67825 6.55802 8.71141 6.61103C8.74456 6.66404 8.76214 6.72531 8.76214 6.78784V7.32562C8.7621 7.34915 8.7596 7.37261 8.75466 7.39562C8.67165 7.77469 8.46172 8.11406 8.15959 8.3576C7.85747 8.60113 7.48127 8.73423 7.09321 8.73488Z"/>
<path d="M6.80966 5.23881C6.76588 5.23883 6.72252 5.23023 6.68207 5.21348C6.64161 5.19674 6.60486 5.17219 6.5739 5.14123C6.54294 5.11027 6.51839 5.07351 6.50165 5.03306C6.48491 4.99261 6.4763 4.94925 6.47633 4.90547C6.47584 4.77955 6.42543 4.65896 6.33615 4.57017C6.24687 4.48137 6.12601 4.43161 6.00009 4.43182C5.91168 4.43182 5.82689 4.3967 5.76438 4.33418C5.70187 4.27167 5.66675 4.18688 5.66675 4.09848C5.66675 4.01007 5.70187 3.92528 5.76438 3.86277C5.82689 3.80026 5.91168 3.76514 6.00009 3.76514C6.30277 3.76511 6.59309 3.88516 6.80736 4.09895C7.02163 4.31273 7.14233 4.60279 7.14299 4.90547C7.14301 4.94925 7.13441 4.99261 7.11767 5.03306C7.10093 5.07351 7.07638 5.11027 7.04542 5.14123C7.01446 5.17219 6.9777 5.19674 6.93725 5.21348C6.8968 5.23023 6.85344 5.23883 6.80966 5.23881Z"/>
<path d="M8.96808 5.23887C8.9243 5.23889 8.88094 5.23029 8.84049 5.21355C8.80004 5.1968 8.76328 5.17225 8.73232 5.14129C8.70136 5.11033 8.67681 5.07358 8.66007 5.03312C8.64333 4.99267 8.63473 4.94931 8.63475 4.90553C8.63265 4.20828 8.35408 3.54034 7.86014 3.04822C7.3662 2.5561 6.69723 2.27999 5.99998 2.28046C5.91189 2.27998 5.82757 2.24464 5.76545 2.18218C5.70333 2.11972 5.66846 2.03521 5.66846 1.94711C5.66846 1.85902 5.70333 1.77451 5.76545 1.71205C5.82757 1.64959 5.91189 1.61425 5.99998 1.61377C6.87399 1.61348 7.71242 1.95989 8.33134 2.577C8.95027 3.19411 9.29913 4.03153 9.30141 4.90553C9.30144 4.94931 9.29283 4.99267 9.27609 5.03312C9.25935 5.07358 9.2348 5.11033 9.20384 5.14129C9.17288 5.17225 9.13613 5.1968 9.09567 5.21355C9.05522 5.23029 9.01186 5.23889 8.96808 5.23887Z"/>
<path d="M7.88898 5.23876C7.8452 5.23878 7.80184 5.23018 7.76139 5.21344C7.72093 5.19669 7.68418 5.17214 7.65322 5.14118C7.62226 5.11022 7.59771 5.07347 7.58096 5.03301C7.56422 4.99256 7.55562 4.9492 7.55564 4.90542C7.55437 4.49379 7.38987 4.09947 7.09823 3.80897C6.80658 3.51848 6.41162 3.35554 5.99998 3.3559C5.91189 3.35542 5.82757 3.32008 5.76545 3.25762C5.70333 3.19516 5.66846 3.11065 5.66846 3.02255C5.66846 2.93446 5.70333 2.84995 5.76545 2.78749C5.82757 2.72502 5.91189 2.68969 5.99998 2.68921C6.58836 2.68909 7.15276 2.92234 7.56938 3.33781C7.986 3.75329 8.22081 4.31704 8.22231 4.90542C8.22234 4.9492 8.21373 4.99256 8.19699 5.03301C8.18025 5.07347 8.1557 5.11022 8.12474 5.14118C8.09378 5.17214 8.05703 5.19669 8.01657 5.21344C7.97612 5.23018 7.93276 5.23878 7.88898 5.23876Z"/>
<path d="M3.569 12C3.5397 12 3.51041 11.9987 3.48078 11.9958C3.36683 11.9843 3.25625 11.9506 3.15535 11.8964C3.05445 11.8422 2.96521 11.7687 2.89272 11.6801C2.82023 11.5914 2.76592 11.4893 2.73289 11.3797C2.69986 11.27 2.68875 11.1549 2.7002 11.041L2.69889 9.9088C0.88346 9.235 0 7.68315 0 5.17429C0 0.627 2.88379 0 6 0C9.11621 0 12 0.62567 12 5.16355C12 9.71088 9.11621 10.3378 6 10.3378H5.4222L4.25879 11.6608C4.17853 11.7676 4.07425 11.8539 3.95441 11.9128C3.83457 11.9717 3.70253 12.0016 3.569 12ZM6 0.66668C2.62207 0.66668 0.66667 1.40433 0.66667 5.17429C0.66667 8.21865 2.07422 9.01717 3.13281 9.35312C3.20025 9.37456 3.25913 9.4169 3.30091 9.47402C3.34269 9.53114 3.36522 9.60007 3.36523 9.67084V11.0748C3.35948 11.1066 3.36033 11.1392 3.36773 11.1706C3.37513 11.202 3.38891 11.2316 3.40823 11.2575C3.42839 11.282 3.45391 11.3016 3.48285 11.3148C3.51178 11.3279 3.54334 11.3343 3.5751 11.3333C3.60686 11.3323 3.63798 11.3241 3.66605 11.3092C3.69412 11.2943 3.7184 11.2731 3.73701 11.2474L5.02116 9.78445C5.05244 9.74887 5.09095 9.72036 5.13411 9.70083C5.17727 9.68129 5.2241 9.67118 5.27148 9.67116H6C9.37793 9.67116 11.3333 8.93351 11.3333 5.16355C11.3333 1.01044 8.81055 0.66668 6 0.66668Z"/>
</svg>
